<svg xmlns="http://www.w3.org/2000/svg" xmlns:v="https://svgstorm.com"
viewBox = "0 0 819 819"
width="819"
height="819">
<g fill="None" fill-opacity="0.0" stroke="#FEFEFE" stroke-opacity="1.00" stroke-width="0.3"><path d="
M 0.00 819.00 
L 819.00 819.00
L 819.00 0.00
L 0.00 0.00
L 0.00 819.00
M 335.00 361.00 
C 338.34 364.34 340.67 368.67 344.00 372.00
C 349.08 377.08 364.38 392.98 349.99 394.99 C 335.60 397.00 324.07 395.10 310.00 397.00
C 310.37 402.05 313.86 406.16 315.00 411.00
C 321.63 428.95 330.33 446.09 337.00 464.00
C 340.54 461.62 340.61 456.70 342.00 453.00
C 349.65 430.63 360.56 413.31 372.00 393.00
C 375.12 387.46 379.71 380.70 385.00 377.00
C 385.23 376.84 385.00 376.00 385.00 376.00
C 387.21 371.47 394.00 365.85 398.00 363.00
C 402.23 359.98 406.72 357.54 411.00 355.00
C 415.49 352.34 419.57 349.37 425.00 348.00
C 437.66 344.82 449.36 352.28 456.00 363.00
C 461.91 370.64 466.68 378.78 470.00 388.00
C 476.27 405.43 483.65 422.98 491.00 440.00
C 494.23 445.92 498.07 451.20 500.00 458.00
C 506.51 480.99 525.92 498.33 546.00 510.00
C 565.09 517.05 585.43 519.64 606.00 520.00
C 618.79 518.17 630.51 512.71 641.70 506.70 C 652.88 500.68 658.37 490.81 667.75 482.75 C 677.14 474.69 690.05 490.26 699.70 494.30 C 709.35 498.35 721.06 508.53 731.00 513.00
C 722.71 530.60 707.11 545.31 692.00 558.00
C 676.78 571.00 658.04 580.25 639.00 585.00
C 635.38 578.68 634.59 566.21 624.33 568.33 C 614.07 570.45 606.48 572.65 595.00 572.00 C 583.52 571.35 591.37 590.76 583.92 592.92 C 576.46 595.07 562.82 589.95 554.98 589.02 C 547.13 588.09 537.91 584.41 530.32 581.68 C 522.73 578.94 515.41 574.41 508.00 571.00
C 508.86 563.72 517.86 552.92 509.77 548.23 C 501.68 543.54 497.98 540.31 490.75 534.25 C 483.52 528.19 477.40 541.06 470.00 542.00
C 467.62 536.94 456.31 531.91 460.00 527.00
C 463.98 520.35 473.57 514.57 466.75 507.25 C 459.93 499.94 460.14 493.67 455.00 486.00
C 448.05 485.86 441.60 487.63 435.00 489.00
C 430.75 481.09 428.88 472.38 426.00 464.00
C 422.64 457.56 419.86 447.50 420.07 439.93 C 420.29 432.36 415.50 417.40 420.26 411.26 C 425.02 405.12 442.21 412.77 440.99 400.99 C 439.77 389.21 448.94 386.67 439.00 378.00
C 435.80 375.62 432.43 373.67 429.00 372.00
C 426.03 372.95 421.14 372.00 418.00 372.00
C 417.50 372.00 416.49 371.95 416.00 372.00
C 414.72 372.14 413.64 372.91 413.00 374.00
C 411.14 377.16 410.67 383.31 410.00 387.00
C 407.76 399.25 404.17 411.78 406.00 425.00 C 407.83 438.22 408.27 449.52 404.00 462.00
C 398.26 478.78 391.74 495.23 386.00 512.00
C 377.74 536.14 366.18 576.86 332.99 569.01 C 299.80 561.15 298.23 528.06 288.00 502.00
C 283.77 491.22 278.97 479.43 274.00 469.00
C 267.43 486.06 260.12 502.79 254.00 520.00
C 249.24 532.12 245.83 544.30 238.23 555.23 C 230.63 566.16 214.60 572.79 201.00 570.00 C 187.40 567.21 179.72 559.15 174.07 545.93 C 168.43 532.70 168.19 521.85 160.68 507.32 C 153.17 492.79 169.68 490.65 180.00 482.00
C 183.69 478.91 187.26 475.19 191.00 472.00
C 194.57 468.43 200.97 458.11 206.00 457.00
C 208.81 456.38 208.34 460.76 210.00 463.00
C 218.58 449.35 224.37 432.46 220.00 416.00
C 212.82 427.01 205.03 438.10 195.00 447.00
C 183.43 460.28 173.41 470.15 157.77 478.77 C 142.13 487.39 121.57 492.49 104.77 481.23 C 87.97 469.97 85.37 449.95 92.00 432.00
C 95.61 422.21 102.15 413.12 110.00 406.00
C 112.95 411.87 116.99 419.11 111.25 424.25 C 105.50 429.38 104.49 436.39 102.00 443.00
C 101.94 443.49 102.00 444.50 102.00 445.00
C 102.00 447.96 101.73 451.06 102.00 454.00
C 109.13 488.44 149.22 472.20 167.00 457.00
C 174.58 449.42 182.46 441.54 190.00 434.00
C 200.70 421.48 211.96 407.55 219.00 393.00
C 222.08 377.30 217.39 360.83 217.67 345.33 C 217.95 329.83 216.77 316.88 217.00 300.00 C 217.23 283.12 216.73 269.00 217.00 251.00 C 217.27 233.00 235.94 246.42 241.75 256.25 C 247.56 266.07 257.72 272.52 265.25 281.75 C 272.78 290.98 280.60 300.03 288.75 308.25 C 296.91 316.46 303.89 325.66 311.92 334.08 C 319.95 342.50 328.56 351.80 335.00 361.00
M 610.00 257.00 
C 613.23 257.94 616.39 259.36 620.00 259.00
C 617.16 270.46 620.54 281.66 631.67 282.33 C 642.81 283.00 647.23 291.13 657.08 292.92 C 666.92 294.72 667.94 275.41 676.25 279.76 C 684.55 284.10 689.89 288.63 696.75 294.25 C 703.61 299.87 709.22 305.29 715.25 311.75 C 721.28 318.21 727.15 325.02 730.00 333.00
C 730.39 340.46 713.55 341.26 709.25 348.25 C 704.96 355.25 691.38 355.61 685.75 362.75 C 680.13 369.90 667.11 371.65 661.75 362.25 C 656.38 352.86 649.68 350.66 641.77 344.23 C 633.86 337.80 624.78 336.90 614.99 333.01 C 605.20 329.11 591.33 329.00 580.00 329.00
C 537.90 329.00 502.05 369.50 494.00 408.00
C 481.93 383.51 474.02 351.62 448.00 337.00
C 450.64 330.10 456.71 324.50 460.00 318.00
C 463.99 312.30 470.33 302.82 476.75 299.75 C 483.16 296.68 489.94 285.59 496.23 284.23 C 502.52 282.87 509.39 302.28 516.25 295.25 C 523.10 288.21 534.71 291.57 539.75 283.75 C 544.79 275.92 535.72 262.84 548.00 261.00 C 560.29 259.17 565.75 256.07 577.67 255.67 C 589.59 255.27 599.23 253.87 610.00 257.00
M 160.00 317.00 
C 160.65 318.70 161.42 320.27 162.00 322.00
C 166.60 331.60 170.19 342.48 173.00 353.00
C 175.15 361.06 178.29 369.08 181.00 377.00
C 184.28 386.60 193.78 400.79 190.24 410.25 C 186.71 419.70 176.03 427.19 169.25 435.25 C 162.47 443.31 152.43 452.07 143.00 456.00
C 135.60 430.31 124.38 405.73 117.00 380.00
C 111.91 371.69 109.41 360.35 106.00 351.00
C 103.52 345.99 101.18 340.75 100.00 335.00
C 99.58 332.95 99.32 331.11 99.00 329.00
C 98.19 326.66 96.10 323.21 95.00 321.00
C 88.51 308.02 86.35 301.74 85.00 286.00 C 83.65 270.26 107.54 273.00 118.00 273.00 C 128.46 273.00 137.93 279.23 147.23 285.77 C 156.53 292.31 158.65 308.22 160.00 317.00
M 427.00 334.00 
C 423.12 334.30 419.64 334.79 416.00 336.00
C 399.92 341.36 387.53 354.51 375.00 366.00
C 375.49 361.10 378.51 356.93 379.00 352.00
C 382.35 336.08 389.97 318.92 395.31 304.31 C 400.64 289.69 413.42 273.34 431.00 275.00
C 431.50 275.05 432.00 275.00 432.00 275.00
C 438.30 270.34 449.91 275.75 458.00 274.00 C 466.09 272.25 470.61 285.22 467.67 291.67 C 464.73 298.12 459.90 301.22 454.77 305.77 C 449.63 310.31 446.36 315.96 443.22 322.22 C 440.09 328.49 434.77 333.41 427.00 334.00
M 592.00 425.00 
C 589.60 432.19 586.04 439.42 585.00 447.00
C 584.10 453.59 581.85 463.11 573.00 460.00 C 564.15 456.89 571.81 449.42 573.32 444.32 C 574.83 439.22 578.12 431.80 579.93 425.93 C 581.73 420.05 584.55 412.65 586.33 406.33 C 588.11 400.00 592.50 393.89 592.99 386.99 C 593.48 380.09 608.68 382.21 607.59 388.75 C 606.51 395.29 600.71 400.06 599.74 406.74 C 598.77 413.43 595.28 419.48 592.00 425.00
M 566.00 399.00 
C 570.10 414.74 549.34 412.60 542.00 421.00
C 551.26 425.76 569.55 427.50 566.00 442.00
C 554.03 437.35 543.10 430.31 531.00 426.00
C 531.00 422.00 531.00 418.00 531.00 414.00
C 543.08 410.23 553.80 402.37 566.00 399.00
M 646.00 426.00 
C 634.11 430.65 623.08 437.80 611.00 442.00
C 611.00 438.33 611.00 434.67 611.00 431.00
C 619.58 429.30 626.50 422.92 635.00 421.00
C 628.60 412.75 606.71 414.84 611.00 399.00
C 618.88 400.94 624.99 405.31 632.70 408.31 C 640.40 411.30 649.62 415.30 646.00 426.00 Z"/>
</g>
<g fill="None" fill-opacity="0.0" stroke="#DDF6FC" stroke-opacity="1.00" stroke-width="0.3"><path d="
M 219.00 393.00 
C 220.79 389.30 221.00 386.60 221.00 382.00
C 220.04 372.05 220.00 360.65 220.00 350.00
C 220.00 341.33 220.00 332.67 220.00 324.00
C 217.49 298.09 219.67 270.43 218.00 244.00
C 236.04 243.59 243.81 264.35 255.75 275.25 C 267.69 286.14 277.45 299.74 289.00 311.00
C 303.65 328.14 319.14 345.14 335.00 361.00
C 328.56 351.80 319.95 342.50 311.92 334.08 C 303.89 325.66 296.91 316.46 288.75 308.25 C 280.60 300.03 272.78 290.98 265.25 281.75 C 257.72 272.52 247.56 266.07 241.75 256.25 C 235.94 246.42 217.27 233.00 217.00 251.00 C 216.73 269.00 217.23 283.12 217.00 300.00 C 216.77 316.88 217.95 329.83 217.67 345.33 C 217.39 360.83 222.08 377.30 219.00 393.00 Z"/>
</g>
<g fill="None" fill-opacity="0.0" stroke="#48ABD0" stroke-opacity="1.00" stroke-width="0.3"><path d="
M 220.00 324.00 
C 220.00 320.00 220.00 316.00 220.00 312.00
C 222.56 313.40 226.95 313.25 226.00 309.00
C 227.26 309.08 226.56 311.06 228.00 311.00
C 228.00 293.67 228.00 276.33 228.00 259.00
C 243.90 274.47 258.73 291.29 273.00 308.00
C 277.26 311.64 281.03 316.03 285.00 320.00
C 282.27 316.80 280.57 314.15 280.00 310.00
C 282.64 309.85 284.40 308.66 283.00 306.00
C 285.41 307.11 286.62 309.96 289.00 311.00
C 277.45 299.74 267.69 286.14 255.75 275.25 C 243.81 264.35 236.04 243.59 218.00 244.00
C 219.67 270.43 217.49 298.09 220.00 324.00 Z"/>
</g>
<g fill="None" fill-opacity="0.0" stroke="#D6FADC" stroke-opacity="1.00" stroke-width="0.3"><path d="
M 460.00 318.00 
C 461.67 315.97 464.27 314.02 466.00 312.00
C 469.37 308.06 473.11 304.33 477.00 301.00
C 483.63 295.33 496.02 279.44 503.25 291.75 C 510.48 304.06 524.37 293.45 534.00 289.00
C 537.32 286.81 544.11 286.24 543.66 281.32 C 543.21 276.40 541.66 269.35 542.00 264.00
C 563.39 256.80 586.62 256.46 610.00 257.00
C 599.23 253.87 589.59 255.27 577.67 255.67 C 565.75 256.07 560.29 259.17 548.00 261.00 C 535.72 262.84 544.79 275.92 539.75 283.75 C 534.71 291.57 523.10 288.21 516.25 295.25 C 509.39 302.28 502.52 282.87 496.23 284.23 C 489.94 285.59 483.16 296.68 476.75 299.75 C 470.33 302.82 463.99 312.30 460.00 318.00 Z"/>
</g>
<g fill="None" fill-opacity="0.0" stroke="#46C058" stroke-opacity="1.00" stroke-width="0.3"><path d="
M 534.00 289.00 
C 528.05 292.92 520.65 296.83 514.25 300.25 C 507.86 303.68 501.53 289.89 497.00 287.00
C 491.52 290.40 485.79 294.50 481.25 299.25 C 476.70 304.00 469.03 309.66 475.00 315.00
C 471.22 316.69 470.21 316.65 467.00 314.00
C 464.07 317.89 460.42 321.43 459.00 326.00
C 466.16 323.00 470.04 327.34 476.00 326.00
C 474.11 322.44 478.19 322.25 478.00 319.00
C 482.13 321.02 483.44 320.87 487.00 321.00
C 484.54 325.90 475.25 322.65 478.00 330.00
C 482.57 326.87 492.71 330.25 493.00 324.00
C 497.43 323.43 502.78 332.18 507.00 328.00
C 508.15 335.61 522.18 328.86 520.00 337.00
C 525.48 336.15 527.18 340.61 530.00 343.00
C 528.60 339.27 531.97 336.34 535.00 341.00
C 539.25 340.94 539.32 337.15 543.00 337.00
C 543.61 334.29 539.17 336.66 540.00 333.00
C 555.10 332.87 576.67 324.22 595.00 328.00
C 603.74 328.47 608.66 328.96 617.22 331.78 C 625.78 334.59 626.61 333.56 636.08 338.92 C 645.54 344.29 657.94 353.26 664.30 362.70 C 670.67 372.13 676.27 365.95 682.08 363.08 C 687.88 360.20 693.24 356.51 698.08 353.08 C 702.93 349.65 710.42 346.95 714.08 343.08 C 717.74 339.21 728.56 337.60 730.00 333.00
C 727.15 325.02 721.28 318.21 715.25 311.75 C 709.22 305.29 703.61 299.87 696.75 294.25 C 689.89 288.63 684.55 284.10 676.25 279.76 C 667.94 275.41 666.92 294.72 657.08 292.92 C 647.23 291.13 642.81 283.00 631.67 282.33 C 620.54 281.66 617.16 270.46 620.00 259.00
C 616.39 259.36 613.23 257.94 610.00 257.00
C 586.62 256.46 563.39 256.80 542.00 264.00
C 541.66 269.35 543.21 276.40 543.66 281.32 C 544.11 286.24 537.32 286.81 534.00 289.00 Z"/>
</g>
<g fill="None" fill-opacity="0.0" stroke="#CDF0F8" stroke-opacity="1.00" stroke-width="0.3"><path d="
M 228.00 311.00 
C 228.00 327.49 229.00 343.39 229.00 360.00
C 229.27 359.75 230.00 360.00 230.00 360.00
C 230.00 327.49 228.66 294.90 230.00 263.00
C 245.52 276.90 256.76 294.62 273.00 308.00
C 258.73 291.29 243.90 274.47 228.00 259.00
C 228.00 276.33 228.00 293.67 228.00 311.00 Z"/>
</g>
<g fill="None" fill-opacity="0.0" stroke="#FBFDFD" stroke-opacity="1.00" stroke-width="0.3"><path d="
M 230.00 360.00 
C 230.00 365.00 230.00 370.00 230.00 375.00
C 230.00 392.93 231.13 410.08 231.00 428.00
C 237.76 424.31 242.68 417.09 249.25 413.25 C 255.82 409.41 260.63 401.44 267.75 398.75 C 274.87 396.06 276.69 412.35 279.98 418.02 C 283.26 423.70 287.40 435.50 290.00 442.00
C 293.68 451.37 298.51 457.03 300.77 467.23 C 303.04 477.42 315.49 479.66 322.69 471.70 C 329.90 463.73 318.94 454.30 317.23 445.77 C 315.52 437.24 308.33 428.52 306.23 419.77 C 304.13 411.02 297.51 401.96 296.00 393.00
C 295.87 392.22 294.12 390.44 295.00 389.00
C 311.31 387.91 327.57 386.65 344.00 386.00
C 342.27 383.08 338.91 381.35 338.00 378.00
C 321.28 358.05 301.99 339.88 285.00 320.00
C 281.03 316.03 277.26 311.64 273.00 308.00
C 256.76 294.62 245.52 276.90 230.00 263.00
C 228.66 294.90 230.00 327.49 230.00 360.00 Z"/>
</g>
<g fill="None" fill-opacity="0.0" stroke="#DBF7FC" stroke-opacity="1.00" stroke-width="0.3"><path d="
M 95.00 321.00 
C 90.57 307.36 88.74 303.57 87.00 288.00 C 85.26 272.43 105.35 275.83 117.00 276.00 C 128.65 276.17 138.19 280.68 146.25 288.75 C 154.31 296.83 156.17 306.91 160.00 317.00
C 158.65 308.22 156.53 292.31 147.23 285.77 C 137.93 279.23 128.46 273.00 118.00 273.00 C 107.54 273.00 83.65 270.26 85.00 286.00 C 86.35 301.74 88.51 308.02 95.00 321.00 Z"/>
</g>
<g fill="None" fill-opacity="0.0" stroke="#DBF7FA" stroke-opacity="1.00" stroke-width="0.3"><path d="
M 432.00 275.00 
C 440.56 274.99 452.46 273.22 460.00 276.00
C 475.77 281.82 460.19 298.08 452.75 304.75 C 445.32 311.43 438.39 324.70 433.00 333.00
C 431.12 333.47 428.07 331.94 427.00 334.00
C 434.77 333.41 440.09 328.49 443.22 322.22 C 446.36 315.96 449.63 310.31 454.77 305.77 C 459.90 301.22 464.73 298.12 467.67 291.67 C 470.61 285.22 466.09 272.25 458.00 274.00 C 449.91 275.75 438.30 270.34 432.00 275.00 Z"/>
</g>
<g fill="None" fill-opacity="0.0" stroke="#DBF7FB" stroke-opacity="1.00" stroke-width="0.3"><path d="
M 379.00 352.00 
C 383.20 341.29 388.10 330.12 392.00 319.00
C 398.97 299.16 406.90 279.26 431.00 276.00
C 431.07 275.99 431.00 275.00 431.00 275.00
C 413.42 273.34 400.64 289.69 395.31 304.31 C 389.97 318.92 382.35 336.08 379.00 352.00 Z"/>
</g>
<g fill="None" fill-opacity="0.0" stroke="#9DD4DF" stroke-opacity="1.00" stroke-width="0.3"><path d="
M 431.00 276.00 
C 440.28 276.84 450.93 273.99 460.00 276.00
C 452.46 273.22 440.56 274.99 432.00 275.00
C 432.00 275.00 431.50 275.05 431.00 275.00
C 431.00 275.00 431.07 275.99 431.00 276.00 Z"/>
</g>
<g fill="None" fill-opacity="0.0" stroke="#3CA5D5" stroke-opacity="1.00" stroke-width="0.3"><path d="
M 95.00 321.00 
C 96.10 323.21 98.19 326.66 99.00 329.00
C 98.46 325.40 98.01 322.44 97.00 319.00
C 99.92 320.34 102.18 320.11 105.00 321.00
C 105.03 315.29 113.17 317.47 111.00 313.00
C 114.51 316.59 120.86 317.07 124.00 313.00
C 125.68 314.77 125.98 316.91 127.00 319.00
C 128.73 316.58 133.23 316.61 135.00 319.00
C 136.71 312.68 141.95 321.25 145.00 315.00
C 144.86 317.50 147.58 320.46 147.00 316.00
C 149.92 318.28 153.89 322.10 158.00 319.00
C 159.25 320.04 160.43 321.23 161.00 323.00
C 161.07 323.18 162.00 323.00 162.00 323.00
C 161.82 322.57 162.00 322.00 162.00 322.00
C 161.42 320.27 160.65 318.70 160.00 317.00
C 156.17 306.91 154.31 296.83 146.25 288.75 C 138.19 280.68 128.65 276.17 117.00 276.00 C 105.35 275.83 85.26 272.43 87.00 288.00 C 88.74 303.57 90.57 307.36 95.00 321.00 Z"/>
</g>
<g fill="None" fill-opacity="0.0" stroke="#3CA6CA" stroke-opacity="1.00" stroke-width="0.3"><path d="
M 392.00 319.00 
C 392.45 321.58 396.76 322.50 397.00 325.00
C 400.60 321.57 402.91 326.07 408.00 326.00
C 409.57 322.15 411.62 323.69 414.00 325.00
C 414.17 321.87 409.88 322.32 412.00 319.00
C 413.96 319.28 413.99 321.05 415.00 323.00
C 417.59 319.87 416.50 319.15 421.00 323.00
C 419.05 320.94 418.55 315.97 422.00 320.00
C 421.74 315.62 425.71 315.69 429.00 318.00
C 429.57 314.53 434.39 314.43 435.00 318.00
C 437.04 316.35 438.41 314.83 442.00 315.00
C 440.46 321.69 433.13 325.66 431.00 332.00
C 425.92 332.40 418.98 331.14 416.00 336.00
C 419.64 334.79 423.12 334.30 427.00 334.00
C 428.07 331.94 431.12 333.47 433.00 333.00
C 438.39 324.70 445.32 311.43 452.75 304.75 C 460.19 298.08 475.77 281.82 460.00 276.00
C 450.93 273.99 440.28 276.84 431.00 276.00
C 406.90 279.26 398.97 299.16 392.00 319.00 Z"/>
</g>
<g fill="None" fill-opacity="0.0" stroke="#40AE65" stroke-opacity="1.00" stroke-width="0.3"><path d="
M 477.00 301.00 
C 473.41 304.59 469.54 308.46 466.00 312.00
C 464.27 314.02 461.67 315.97 460.00 318.00
C 456.71 324.50 450.64 330.10 448.00 337.00
C 474.02 351.62 481.93 383.51 494.00 408.00
C 502.05 369.50 537.90 329.00 580.00 329.00
C 584.39 328.58 589.91 327.72 595.00 328.00
C 576.67 324.22 555.10 332.87 540.00 333.00
C 539.17 336.66 543.61 334.29 543.00 337.00
C 539.32 337.15 539.25 340.94 535.00 341.00
C 531.97 336.34 528.60 339.27 530.00 343.00
C 527.18 340.61 525.48 336.15 520.00 337.00
C 522.18 328.86 508.15 335.61 507.00 328.00
C 502.78 332.18 497.43 323.43 493.00 324.00
C 492.71 330.25 482.57 326.87 478.00 330.00
C 475.25 322.65 484.54 325.90 487.00 321.00
C 483.44 320.87 482.13 321.02 478.00 319.00
C 478.19 322.25 474.11 322.44 476.00 326.00
C 470.04 327.34 466.16 323.00 459.00 326.00
C 460.42 321.43 464.07 317.89 467.00 314.00
C 470.21 316.65 471.22 316.69 475.00 315.00
C 469.03 309.66 476.70 304.00 481.25 299.25 C 485.79 294.50 491.52 290.40 497.00 287.00
C 501.53 289.89 507.86 303.68 514.25 300.25 C 520.65 296.83 528.05 292.92 534.00 289.00
C 524.37 293.45 510.48 304.06 503.25 291.75 C 496.02 279.44 483.63 295.33 477.00 301.00 Z"/>
</g>
<g fill="None" fill-opacity="0.0" stroke="#8DD2A1" stroke-opacity="1.00" stroke-width="0.3"><path d="
M 466.00 312.00 
C 469.54 308.46 473.41 304.59 477.00 301.00
C 473.11 304.33 469.37 308.06 466.00 312.00 Z"/>
</g>
<g fill="None" fill-opacity="0.0" stroke="#4789C1" stroke-opacity="1.00" stroke-width="0.3"><path d="
M 285.00 320.00 
C 301.99 339.88 321.28 358.05 338.00 378.00
C 336.76 376.26 335.05 374.80 334.00 373.00
C 335.98 371.69 335.75 368.91 337.00 367.00
C 339.36 368.74 341.51 370.55 344.00 372.00
C 340.67 368.67 338.34 364.34 335.00 361.00
C 319.14 345.14 303.65 328.14 289.00 311.00
C 286.62 309.96 285.41 307.11 283.00 306.00
C 284.40 308.66 282.64 309.85 280.00 310.00
C 280.57 314.15 282.27 316.80 285.00 320.00 Z"/>
</g>
<g fill="None" fill-opacity="0.0" stroke="#3E89C1" stroke-opacity="1.00" stroke-width="0.3"><path d="
M 220.00 324.00 
C 220.00 332.67 220.00 341.33 220.00 350.00
C 220.17 351.47 220.94 353.90 221.00 356.00
C 221.39 358.99 222.79 363.31 222.00 367.00
C 224.19 364.15 226.09 363.50 228.00 367.00
C 228.28 365.72 227.24 363.50 229.00 363.00
C 229.00 362.00 229.00 361.00 229.00 360.00
C 229.00 343.39 228.00 327.49 228.00 311.00
C 226.56 311.06 227.26 309.08 226.00 309.00
C 226.95 313.25 222.56 313.40 220.00 312.00
C 220.00 316.00 220.00 320.00 220.00 324.00 Z"/>
</g>
<g fill="None" fill-opacity="0.0" stroke="#3A96D0" stroke-opacity="1.00" stroke-width="0.3"><path d="
M 99.00 329.00 
C 99.32 331.11 99.58 332.95 100.00 335.00
C 100.03 335.12 101.00 335.00 101.00 335.00
C 100.82 335.14 109.83 349.39 111.00 351.00
C 114.85 348.44 116.47 352.10 117.00 346.00
C 120.78 347.28 115.32 349.63 119.00 351.00
C 121.81 348.58 124.80 348.36 122.00 352.00
C 124.64 350.10 126.25 354.77 126.00 350.00
C 132.28 349.87 142.64 347.54 148.22 347.22 C 153.81 346.90 160.24 343.42 164.00 347.00
C 169.22 340.06 162.65 331.22 161.00 323.00
C 160.43 321.23 159.25 320.04 158.00 319.00
C 153.89 322.10 149.92 318.28 147.00 316.00
C 147.58 320.46 144.86 317.50 145.00 315.00
C 141.95 321.25 136.71 312.68 135.00 319.00
C 133.23 316.61 128.73 316.58 127.00 319.00
C 125.98 316.91 125.68 314.77 124.00 313.00
C 120.86 317.07 114.51 316.59 111.00 313.00
C 113.17 317.47 105.03 315.29 105.00 321.00
C 102.18 320.11 99.92 320.34 97.00 319.00
C 98.01 322.44 98.46 325.40 99.00 329.00 Z"/>
</g>
<g fill="None" fill-opacity="0.0" stroke="#4198C7" stroke-opacity="1.00" stroke-width="0.3"><path d="
M 392.00 319.00 
C 388.10 330.12 383.20 341.29 379.00 352.00
C 378.51 356.93 375.49 361.10 375.00 366.00
C 387.53 354.51 399.92 341.36 416.00 336.00
C 418.98 331.14 425.92 332.40 431.00 332.00
C 433.13 325.66 440.46 321.69 442.00 315.00
C 438.41 314.83 437.04 316.35 435.00 318.00
C 434.39 314.43 429.57 314.53 429.00 318.00
C 425.71 315.69 421.74 315.62 422.00 320.00
C 418.55 315.97 419.05 320.94 421.00 323.00
C 416.50 319.15 417.59 319.87 415.00 323.00
C 413.99 321.05 413.96 319.28 412.00 319.00
C 409.88 322.32 414.17 321.87 414.00 325.00
C 411.62 323.69 409.57 322.15 408.00 326.00
C 402.91 326.07 400.60 321.57 397.00 325.00
C 396.76 322.50 392.45 321.58 392.00 319.00 Z"/>
</g>
<g fill="None" fill-opacity="0.0" stroke="#B9DFF1" stroke-opacity="1.00" stroke-width="0.3"><path d="
M 162.00 323.00 
C 166.02 332.75 169.45 343.39 173.00 353.00
C 170.19 342.48 166.60 331.60 162.00 322.00
C 162.00 322.00 161.82 322.57 162.00 323.00 Z"/>
</g>
<g fill="None" fill-opacity="0.0" stroke="#3F84C7" stroke-opacity="1.00" stroke-width="0.3"><path d="
M 101.00 335.00 
C 101.59 340.15 104.21 346.09 106.00 351.00
C 109.41 360.35 111.91 371.69 117.00 380.00
C 119.21 383.61 121.28 387.57 122.00 392.00
C 122.65 388.14 126.89 387.56 129.00 385.00
C 130.51 389.01 130.50 385.97 134.00 386.00
C 134.94 390.68 137.42 387.01 137.00 384.00
C 140.50 386.69 143.99 391.78 149.00 392.00
C 146.27 390.37 148.70 388.96 150.00 387.00
C 153.09 389.73 153.28 389.95 157.00 388.00
C 157.47 391.76 160.28 392.65 160.00 388.00
C 162.09 389.20 159.76 393.44 163.00 394.00
C 162.86 386.21 172.45 386.27 178.00 386.00
C 179.03 383.10 179.88 379.95 181.00 377.00
C 178.29 369.08 175.15 361.06 173.00 353.00
C 169.45 343.39 166.02 332.75 162.00 323.00
C 162.00 323.00 161.07 323.18 161.00 323.00
C 162.65 331.22 169.22 340.06 164.00 347.00
C 160.24 343.42 153.81 346.90 148.22 347.22 C 142.64 347.54 132.28 349.87 126.00 350.00
C 126.25 354.77 124.64 350.10 122.00 352.00
C 124.80 348.36 121.81 348.58 119.00 351.00
C 115.32 349.63 120.78 347.28 117.00 346.00
C 116.47 352.10 114.85 348.44 111.00 351.00
C 109.83 349.39 100.82 335.14 101.00 335.00 Z"/>
</g>
<g fill="None" fill-opacity="0.0" stroke="#E0FBE4" stroke-opacity="1.00" stroke-width="0.3"><path d="
M 580.00 329.00 
C 591.33 329.00 605.20 329.11 614.99 333.01 C 624.78 336.90 633.86 337.80 641.77 344.23 C 649.68 350.66 656.38 352.86 661.75 362.25 C 667.11 371.65 680.13 369.90 685.75 362.75 C 691.38 355.61 704.96 355.25 709.25 348.25 C 713.55 341.26 730.39 340.46 730.00 333.00
C 728.56 337.60 717.74 339.21 714.08 343.08 C 710.42 346.95 702.93 349.65 698.08 353.08 C 693.24 356.51 687.88 360.20 682.08 363.08 C 676.27 365.95 670.67 372.13 664.30 362.70 C 657.94 353.26 645.54 344.29 636.08 338.92 C 626.61 333.56 625.78 334.59 617.22 331.78 C 608.66 328.96 603.74 328.47 595.00 328.00
C 589.91 327.72 584.39 328.58 580.00 329.00 Z"/>
</g>
<g fill="None" fill-opacity="0.0" stroke="#BFE4F4" stroke-opacity="1.00" stroke-width="0.3"><path d="
M 106.00 351.00 
C 104.21 346.09 101.59 340.15 101.00 335.00
C 101.00 335.00 100.03 335.12 100.00 335.00
C 101.18 340.75 103.52 345.99 106.00 351.00 Z"/>
</g>
<g fill="None" fill-opacity="0.0" stroke="#37927C" stroke-opacity="1.00" stroke-width="0.3"><path d="
M 425.00 348.00 
C 425.26 350.77 426.88 351.92 429.00 354.00
C 424.57 358.81 426.98 365.19 428.00 371.00
C 428.35 371.05 428.73 371.87 429.00 372.00
C 432.43 373.67 435.80 375.62 439.00 378.00
C 442.01 380.24 444.61 382.22 445.00 386.00
C 445.24 382.56 443.46 379.29 443.00 375.00
C 445.52 375.07 447.73 373.92 450.00 373.00
C 449.18 369.24 452.50 366.94 454.00 364.00
C 457.00 365.06 457.01 368.99 460.00 370.00
C 458.61 367.66 457.42 365.29 456.00 363.00
C 449.36 352.28 437.66 344.82 425.00 348.00 Z"/>
</g>
<g fill="None" fill-opacity="0.0" stroke="#39888D" stroke-opacity="1.00" stroke-width="0.3"><path d="
M 411.00 355.00 
C 409.48 358.39 415.19 366.15 418.00 368.00
C 417.45 369.46 415.60 370.18 416.00 372.00
C 416.49 371.95 417.50 372.00 418.00 372.00
C 420.63 370.88 424.70 370.52 428.00 371.00
C 426.98 365.19 424.57 358.81 429.00 354.00
C 426.88 351.92 425.26 350.77 425.00 348.00
C 419.57 349.37 415.49 352.34 411.00 355.00 Z"/>
</g>
<g fill="None" fill-opacity="0.0" stroke="#81A7CE" stroke-opacity="1.00" stroke-width="0.3"><path d="
M 221.00 382.00 
C 221.00 373.35 221.24 364.65 221.00 356.00
C 220.94 353.90 220.17 351.47 220.00 350.00
C 220.00 360.65 220.04 372.05 221.00 382.00 Z"/>
</g>
<g fill="None" fill-opacity="0.0" stroke="#3F839B" stroke-opacity="1.00" stroke-width="0.3"><path d="
M 398.00 363.00 
C 393.40 366.85 389.98 372.52 385.00 376.00
C 385.00 376.00 385.23 376.84 385.00 377.00
C 388.67 373.33 392.99 369.67 397.00 367.00
C 402.31 369.40 407.72 372.16 413.00 371.00
C 413.00 372.00 413.00 373.00 413.00 374.00
C 413.64 372.91 414.72 372.14 416.00 372.00
C 415.60 370.18 417.45 369.46 418.00 368.00
C 415.19 366.15 409.48 358.39 411.00 355.00
C 406.72 357.54 402.23 359.98 398.00 363.00 Z"/>
</g>
<g fill="None" fill-opacity="0.0" stroke="#4262B1" stroke-opacity="1.00" stroke-width="0.3"><path d="
M 221.00 382.00 
C 221.00 386.60 220.79 389.30 219.00 393.00
C 211.96 407.55 200.70 421.48 190.00 434.00
C 188.64 435.59 187.25 437.39 186.00 439.00
C 186.06 438.91 185.37 442.42 184.00 443.00
C 187.24 445.43 191.53 445.84 195.00 447.00
C 205.03 438.10 212.82 427.01 220.00 416.00
C 224.37 432.46 218.58 449.35 210.00 463.00
C 212.30 466.10 216.17 467.37 219.00 464.00
C 213.11 470.23 229.85 472.99 223.00 469.00
C 226.24 469.54 231.79 466.11 231.00 472.00
C 236.51 470.81 242.87 470.33 244.00 463.00
C 249.74 467.78 256.82 462.26 262.00 465.00
C 263.81 464.86 264.61 463.19 263.00 461.00
C 266.07 464.18 272.97 461.96 275.30 462.29 C 277.63 462.61 280.32 458.88 284.00 462.00
C 289.47 459.75 284.17 454.98 284.00 451.00
C 290.28 450.45 289.12 445.65 290.00 442.00
C 287.40 435.50 283.26 423.70 279.98 418.02 C 276.69 412.35 274.87 396.06 267.75 398.75 C 260.63 401.44 255.82 409.41 249.25 413.25 C 242.68 417.09 237.76 424.31 231.00 428.00
C 231.13 410.08 230.00 392.93 230.00 375.00
C 229.67 371.60 229.00 367.08 229.00 363.00
C 227.24 363.50 228.28 365.72 228.00 367.00
C 226.09 363.50 224.19 364.15 222.00 367.00
C 222.79 363.31 221.39 358.99 221.00 356.00
C 221.24 364.65 221.00 373.35 221.00 382.00 Z"/>
</g>
<g fill="None" fill-opacity="0.0" stroke="#92B5DB" stroke-opacity="1.00" stroke-width="0.3"><path d="
M 229.00 363.00 
C 229.00 367.08 229.67 371.60 230.00 375.00
C 230.00 370.00 230.00 365.00 230.00 360.00
C 230.00 360.00 229.27 359.75 229.00 360.00
C 229.00 361.00 229.00 362.00 229.00 363.00 Z"/>
</g>
<g fill="None" fill-opacity="0.0" stroke="#CFEAF9" stroke-opacity="1.00" stroke-width="0.3"><path d="
M 385.00 376.00 
C 389.98 372.52 393.40 366.85 398.00 363.00
C 394.00 365.85 387.21 371.47 385.00 376.00 Z"/>
</g>
<g fill="None" fill-opacity="0.0" stroke="#BCE8D5" stroke-opacity="1.00" stroke-width="0.3"><path d="
M 460.00 370.00 
C 463.46 375.82 467.11 382.15 470.00 388.00
C 466.68 378.78 461.91 370.64 456.00 363.00
C 457.42 365.29 458.61 367.66 460.00 370.00 Z"/>
</g>
<g fill="None" fill-opacity="0.0" stroke="#2E9267" stroke-opacity="1.00" stroke-width="0.3"><path d="
M 445.00 386.00 
C 444.54 392.65 443.25 400.95 441.22 407.22 C 439.19 413.49 425.29 408.80 421.00 413.00
C 420.91 427.27 420.65 442.24 425.00 455.00
C 426.70 458.94 428.17 463.46 429.00 468.00
C 432.30 466.51 434.42 470.54 437.00 469.00
C 439.27 471.84 430.27 482.08 436.26 485.74 C 442.25 489.40 452.01 479.14 459.00 486.00
C 459.00 483.04 461.33 480.79 463.00 484.00
C 464.76 477.70 473.42 472.33 480.00 479.00
C 479.44 475.06 484.20 476.61 484.00 474.00
C 487.71 473.91 484.78 479.16 487.00 481.00
C 488.03 477.33 488.32 473.29 494.00 475.00
C 490.32 479.76 497.04 486.03 489.00 488.00
C 493.53 486.97 496.66 493.34 496.00 487.00
C 498.57 487.82 501.50 487.63 503.00 490.00
C 504.45 482.74 506.83 489.03 512.00 486.00
C 509.21 480.31 505.83 469.16 499.00 469.00
C 498.85 461.44 491.48 455.00 495.00 448.00
C 493.64 445.33 492.18 442.74 491.00 440.00
C 483.65 422.98 476.27 405.43 470.00 388.00
C 467.11 382.15 463.46 375.82 460.00 370.00
C 457.01 368.99 457.00 365.06 454.00 364.00
C 452.50 366.94 449.18 369.24 450.00 373.00
C 447.73 373.92 445.52 375.07 443.00 375.00
C 443.46 379.29 445.24 382.56 445.00 386.00 Z"/>
</g>
<g fill="None" fill-opacity="0.0" stroke="#446EB0" stroke-opacity="1.00" stroke-width="0.3"><path d="
M 338.00 378.00 
C 338.91 381.35 342.27 383.08 344.00 386.00
C 327.57 386.65 311.31 387.91 295.00 389.00
C 294.12 390.44 295.87 392.22 296.00 393.00
C 298.49 400.62 308.40 412.16 309.00 423.00
C 311.18 420.99 310.20 417.83 315.00 418.00
C 316.16 415.55 313.01 412.52 315.00 411.00
C 313.86 406.16 310.37 402.05 310.00 397.00
C 324.07 395.10 335.60 397.00 349.99 394.99 C 364.38 392.98 349.08 377.08 344.00 372.00
C 341.51 370.55 339.36 368.74 337.00 367.00
C 335.75 368.91 335.98 371.69 334.00 373.00
C 335.05 374.80 336.76 376.26 338.00 378.00 Z"/>
</g>
<g fill="None" fill-opacity="0.0" stroke="#4078AD" stroke-opacity="1.00" stroke-width="0.3"><path d="
M 385.00 377.00 
C 383.26 378.74 382.30 381.41 381.00 383.00
C 382.58 382.61 385.94 386.82 388.00 383.00
C 384.17 380.31 385.63 379.04 389.00 377.00
C 393.00 381.89 399.06 378.77 404.00 380.00
C 402.43 382.28 400.33 384.57 398.00 386.00
C 402.65 387.51 396.88 393.66 404.00 393.00
C 398.97 389.38 403.68 390.65 407.00 392.00
C 406.94 390.06 407.46 386.80 410.00 387.00
C 410.67 383.31 411.14 377.16 413.00 374.00
C 413.00 373.00 413.00 372.00 413.00 371.00
C 407.72 372.16 402.31 369.40 397.00 367.00
C 392.99 369.67 388.67 373.33 385.00 377.00 Z"/>
</g>
<g fill="None" fill-opacity="0.0" stroke="#D4F4F3" stroke-opacity="1.00" stroke-width="0.3"><path d="
M 418.00 372.00 
C 421.14 372.00 426.03 372.95 429.00 372.00
C 428.73 371.87 428.35 371.05 428.00 371.00
C 424.70 370.52 420.63 370.88 418.00 372.00 Z"/>
</g>
<g fill="None" fill-opacity="0.0" stroke="#4370BB" stroke-opacity="1.00" stroke-width="0.3"><path d="
M 117.00 380.00 
C 124.38 405.73 135.60 430.31 143.00 456.00
C 152.43 452.07 162.47 443.31 169.25 435.25 C 176.03 427.19 186.71 419.70 190.24 410.25 C 193.78 400.79 184.28 386.60 181.00 377.00
C 179.88 379.95 179.03 383.10 178.00 386.00
C 172.45 386.27 162.86 386.21 163.00 394.00
C 159.76 393.44 162.09 389.20 160.00 388.00
C 160.28 392.65 157.47 391.76 157.00 388.00
C 153.28 389.95 153.09 389.73 150.00 387.00
C 148.70 388.96 146.27 390.37 149.00 392.00
C 143.99 391.78 140.50 386.69 137.00 384.00
C 137.42 387.01 134.94 390.68 134.00 386.00
C 130.50 385.97 130.51 389.01 129.00 385.00
C 126.89 387.56 122.65 388.14 122.00 392.00
C 121.28 387.57 119.21 383.61 117.00 380.00 Z"/>
</g>
<g fill="None" fill-opacity="0.0" stroke="#B0C9DF" stroke-opacity="1.00" stroke-width="0.3"><path d="
M 372.00 393.00 
C 374.51 389.49 378.25 386.34 381.00 383.00
C 382.30 381.41 383.26 378.74 385.00 377.00
C 379.71 380.70 375.12 387.46 372.00 393.00 Z"/>
</g>
<g fill="None" fill-opacity="0.0" stroke="#4066B3" stroke-opacity="1.00" stroke-width="0.3"><path d="
M 381.00 383.00 
C 378.25 386.34 374.51 389.49 372.00 393.00
C 360.56 413.31 349.65 430.63 342.00 453.00
C 341.57 456.07 343.57 460.79 342.00 464.00
C 348.91 464.85 354.26 466.37 361.00 468.00
C 358.94 462.15 367.31 470.22 370.00 471.00
C 373.04 467.12 373.00 469.10 376.00 471.00
C 375.73 465.54 379.29 468.19 383.08 468.07 C 386.87 467.95 389.69 465.93 392.00 469.00
C 388.63 463.55 398.01 462.72 401.00 464.00
C 402.31 461.91 401.83 458.93 404.00 462.00
C 408.27 449.52 407.83 438.22 406.00 425.00 C 404.17 411.78 407.76 399.25 410.00 387.00
C 407.46 386.80 406.94 390.06 407.00 392.00
C 403.68 390.65 398.97 389.38 404.00 393.00
C 396.88 393.66 402.65 387.51 398.00 386.00
C 400.33 384.57 402.43 382.28 404.00 380.00
C 399.06 378.77 393.00 381.89 389.00 377.00
C 385.63 379.04 384.17 380.31 388.00 383.00
C 385.94 386.82 382.58 382.61 381.00 383.00 Z"/>
</g>
<g fill="None" fill-opacity="0.0" stroke="#D6F4E8" stroke-opacity="1.00" stroke-width="0.3"><path d="
M 426.00 464.00 
C 425.33 461.07 425.70 457.95 425.00 455.00
C 420.65 442.24 420.91 427.27 421.00 413.00
C 425.29 408.80 439.19 413.49 441.22 407.22 C 443.25 400.95 444.54 392.65 445.00 386.00
C 444.61 382.22 442.01 380.24 439.00 378.00
C 448.94 386.67 439.77 389.21 440.99 400.99 C 442.21 412.77 425.02 405.12 420.26 411.26 C 415.50 417.40 420.29 432.36 420.07 439.93 C 419.86 447.50 422.64 457.56 426.00 464.00 Z"/>
</g>
<g fill="None" fill-opacity="0.0" stroke="#DBF6E9" stroke-opacity="1.00" stroke-width="0.3"><path d="
M 585.00 447.00 
C 583.96 450.39 581.03 454.00 581.00 458.00
C 577.66 457.68 573.94 458.84 571.00 457.00
C 576.92 439.32 583.24 421.75 589.00 404.00
C 591.05 398.00 593.40 392.15 595.00 386.00
C 598.00 386.00 601.00 386.00 604.00 386.00
C 603.61 392.66 601.21 399.54 598.00 405.00
C 595.59 411.37 594.18 418.46 592.00 425.00
C 595.28 419.48 598.77 413.43 599.74 406.74 C 600.71 400.06 606.51 395.29 607.59 388.75 C 608.68 382.21 593.48 380.09 592.99 386.99 C 592.50 393.89 588.11 400.00 586.33 406.33 C 584.55 412.65 581.73 420.05 579.93 425.93 C 578.12 431.80 574.83 439.22 573.32 444.32 C 571.81 449.42 564.15 456.89 573.00 460.00 C 581.85 463.11 584.10 453.59 585.00 447.00 Z"/>
</g>
<g fill="None" fill-opacity="0.0" stroke="#40A665" stroke-opacity="1.00" stroke-width="0.3"><path d="
M 589.00 404.00 
C 589.00 405.39 591.29 408.06 591.00 410.00
C 593.40 408.02 596.56 407.82 598.00 405.00
C 601.21 399.54 603.61 392.66 604.00 386.00
C 601.00 386.00 598.00 386.00 595.00 386.00
C 593.40 392.15 591.05 398.00 589.00 404.00 Z"/>
</g>
<g fill="None" fill-opacity="0.0" stroke="#4250AA" stroke-opacity="1.00" stroke-width="0.3"><path d="
M 296.00 393.00 
C 297.51 401.96 304.13 411.02 306.23 419.77 C 308.33 428.52 315.52 437.24 317.23 445.77 C 318.94 454.30 329.90 463.73 322.69 471.70 C 315.49 479.66 303.04 477.42 300.77 467.23 C 298.51 457.03 293.68 451.37 290.00 442.00
C 289.12 445.65 290.28 450.45 284.00 451.00
C 284.17 454.98 289.47 459.75 284.00 462.00
C 280.32 458.88 277.63 462.61 275.30 462.29 C 272.97 461.96 266.07 464.18 263.00 461.00
C 264.61 463.19 263.81 464.86 262.00 465.00
C 256.82 462.26 249.74 467.78 244.00 463.00
C 242.87 470.33 236.51 470.81 231.00 472.00
C 231.79 466.11 226.24 469.54 223.00 469.00
C 229.85 472.99 213.11 470.23 219.00 464.00
C 216.17 467.37 212.30 466.10 210.00 463.00
C 208.34 460.76 208.81 456.38 206.00 457.00
C 201.67 458.44 194.74 468.81 191.00 472.00
C 187.26 475.19 183.69 478.91 180.00 482.00
C 189.08 477.51 196.25 462.83 207.00 466.00
C 197.66 476.83 186.29 486.22 177.00 497.00
C 180.79 497.76 182.25 501.63 186.00 500.00
C 185.15 502.85 185.27 505.33 186.00 508.00
C 188.85 506.42 187.48 502.66 191.00 502.00
C 194.66 507.24 200.57 499.27 203.00 506.00
C 204.18 504.14 202.88 499.90 206.00 500.00
C 204.12 506.91 211.72 498.71 210.00 506.00
C 211.29 501.78 213.67 501.96 215.00 506.00
C 214.82 498.56 222.26 502.56 225.00 506.00
C 228.64 503.11 234.87 509.03 238.00 502.00
C 241.80 506.22 243.88 501.10 247.00 502.00
C 244.42 504.03 246.31 506.16 246.00 509.00
C 249.33 509.34 252.10 510.50 255.00 511.00
C 255.06 513.89 251.26 517.61 254.00 520.00
C 260.12 502.79 267.43 486.06 274.00 469.00
C 278.97 479.43 283.77 491.22 288.00 502.00
C 290.57 501.18 293.50 501.36 295.00 499.00
C 297.85 500.97 298.30 503.94 302.00 501.00
C 302.76 507.99 312.71 506.02 316.00 512.00
C 317.67 502.83 326.75 506.45 331.00 504.00
C 330.74 508.60 331.99 505.02 334.00 504.00
C 333.29 507.02 333.08 508.73 337.00 508.00
C 332.96 499.04 346.25 505.53 351.07 505.93 C 355.89 506.33 361.39 501.49 366.00 506.00
C 364.76 502.12 368.40 502.22 370.00 500.00
C 370.89 502.74 367.09 504.62 369.00 507.00
C 372.38 503.35 372.48 500.41 373.00 508.00
C 374.91 502.46 382.22 502.62 387.00 502.00
C 387.58 505.36 382.72 509.14 386.00 512.00
C 391.74 495.23 398.26 478.78 404.00 462.00
C 401.83 458.93 402.31 461.91 401.00 464.00
C 398.01 462.72 388.63 463.55 392.00 469.00
C 389.69 465.93 386.87 467.95 383.08 468.07 C 379.29 468.19 375.73 465.54 376.00 471.00
C 373.00 469.10 373.04 467.12 370.00 471.00
C 367.31 470.22 358.94 462.15 361.00 468.00
C 354.26 466.37 348.91 464.85 342.00 464.00
C 343.57 460.79 341.57 456.07 342.00 453.00
C 340.61 456.70 340.54 461.62 337.00 464.00
C 330.33 446.09 321.63 428.95 315.00 411.00
C 313.01 412.52 316.16 415.55 315.00 418.00
C 310.20 417.83 311.18 420.99 309.00 423.00
C 308.40 412.16 298.49 400.62 296.00 393.00 Z"/>
</g>
<g fill="None" fill-opacity="0.0" stroke="#3A9466" stroke-opacity="1.00" stroke-width="0.3"><path d="
M 566.00 399.00 
C 553.80 402.37 543.08 410.23 531.00 414.00
C 531.00 418.00 531.00 422.00 531.00 426.00
C 543.10 430.31 554.03 437.35 566.00 442.00
C 569.55 427.50 551.26 425.76 542.00 421.00
C 549.34 412.60 570.10 414.74 566.00 399.00 Z"/>
</g>
<g fill="None" fill-opacity="0.0" stroke="#3D9867" stroke-opacity="1.00" stroke-width="0.3"><path d="
M 646.00 426.00 
C 649.62 415.30 640.40 411.30 632.70 408.31 C 624.99 405.31 618.88 400.94 611.00 399.00
C 606.71 414.84 628.60 412.75 635.00 421.00
C 626.50 422.92 619.58 429.30 611.00 431.00
C 611.00 434.67 611.00 438.33 611.00 442.00
C 623.08 437.80 634.11 430.65 646.00 426.00 Z"/>
</g>
<g fill="None" fill-opacity="0.0" stroke="#378C65" stroke-opacity="1.00" stroke-width="0.3"><path d="
M 585.00 447.00 
C 586.04 439.42 589.60 432.19 592.00 425.00
C 594.18 418.46 595.59 411.37 598.00 405.00
C 596.56 407.82 593.40 408.02 591.00 410.00
C 591.29 408.06 589.00 405.39 589.00 404.00
C 583.24 421.75 576.92 439.32 571.00 457.00
C 573.94 458.84 577.66 457.68 581.00 458.00
C 581.03 454.00 583.96 450.39 585.00 447.00 Z"/>
</g>
<g fill="None" fill-opacity="0.0" stroke="#486CB4" stroke-opacity="1.00" stroke-width="0.3"><path d="
M 92.00 432.00 
C 91.74 434.40 92.18 438.23 93.78 441.22 C 95.37 444.21 100.97 440.23 102.00 443.00
C 104.49 436.39 105.50 429.38 111.25 424.25 C 116.99 419.11 112.95 411.87 110.00 406.00
C 102.15 413.12 95.61 422.21 92.00 432.00 Z"/>
</g>
<g fill="None" fill-opacity="0.0" stroke="#444FA2" stroke-opacity="1.00" stroke-width="0.3"><path d="
M 195.00 447.00 
C 191.53 445.84 187.24 445.43 184.00 443.00
C 185.37 442.42 186.06 438.91 186.00 439.00
C 185.79 439.27 185.20 439.68 185.00 440.00
C 182.39 444.22 177.66 447.87 174.00 451.00
C 171.70 452.96 169.25 455.08 167.00 457.00
C 149.22 472.20 109.13 488.44 102.00 454.00
C 101.35 450.84 100.64 448.21 102.00 445.00
C 102.00 444.50 101.94 443.49 102.00 443.00
C 100.97 440.23 95.37 444.21 93.78 441.22 C 92.18 438.23 91.74 434.40 92.00 432.00
C 85.37 449.95 87.97 469.97 104.77 481.23 C 121.57 492.49 142.13 487.39 157.77 478.77 C 173.41 470.15 183.43 460.28 195.00 447.00 Z"/>
</g>
<g fill="None" fill-opacity="0.0" stroke="#D1DBF4" stroke-opacity="1.00" stroke-width="0.3"><path d="
M 167.00 457.00 
C 169.25 455.08 171.70 452.96 174.00 451.00
C 177.65 447.35 180.93 443.17 185.00 440.00
C 185.20 439.68 185.79 439.27 186.00 439.00
C 187.25 437.39 188.64 435.59 190.00 434.00
C 182.46 441.54 174.58 449.42 167.00 457.00 Z"/>
</g>
<g fill="None" fill-opacity="0.0" stroke="#7E8DB8" stroke-opacity="1.00" stroke-width="0.3"><path d="
M 174.00 451.00 
C 177.66 447.87 182.39 444.22 185.00 440.00
C 180.93 443.17 177.65 447.35 174.00 451.00 Z"/>
</g>
<g fill="None" fill-opacity="0.0" stroke="#BDE5D6" stroke-opacity="1.00" stroke-width="0.3"><path d="
M 495.00 448.00 
C 496.66 451.25 498.73 454.93 500.00 458.00
C 498.07 451.20 494.23 445.92 491.00 440.00
C 492.18 442.74 493.64 445.33 495.00 448.00 Z"/>
</g>
<g fill="None" fill-opacity="0.0" stroke="#AEBAE4" stroke-opacity="1.00" stroke-width="0.3"><path d="
M 102.00 454.00 
C 101.73 451.06 102.00 447.96 102.00 445.00
C 100.64 448.21 101.35 450.84 102.00 454.00 Z"/>
</g>
<g fill="None" fill-opacity="0.0" stroke="#237E5E" stroke-opacity="1.00" stroke-width="0.3"><path d="
M 425.00 455.00 
C 425.70 457.95 425.33 461.07 426.00 464.00
C 428.88 472.38 430.75 481.09 435.00 489.00
C 441.60 487.63 448.05 485.86 455.00 486.00
C 460.14 493.67 459.93 499.94 466.75 507.25 C 473.57 514.57 463.98 520.35 460.00 527.00
C 458.82 531.36 467.29 533.86 471.00 534.00
C 476.77 528.45 486.81 526.77 495.00 529.00
C 492.65 540.32 509.16 541.50 514.00 550.00
C 520.20 548.61 525.41 538.86 530.00 545.00
C 526.84 538.90 545.57 540.08 545.00 546.00
C 549.14 545.67 551.43 548.58 555.00 549.00
C 548.14 551.02 558.12 553.38 559.00 553.00
C 561.67 554.07 557.96 550.31 558.00 549.00
C 560.33 551.36 566.01 551.75 563.00 555.00
C 568.46 551.56 573.88 556.00 577.00 552.00
C 578.34 555.39 573.78 555.28 574.00 558.00
C 582.79 554.13 594.20 551.80 606.00 556.00
C 605.22 558.21 603.06 559.81 604.00 563.00
C 608.07 559.15 610.26 563.80 606.00 567.00
C 608.83 569.54 614.66 569.99 617.00 566.00
C 615.34 562.28 609.60 560.19 613.00 556.00
C 609.40 555.45 607.44 554.60 604.00 555.00
C 605.85 553.22 610.73 547.42 605.00 549.00
C 609.37 543.97 615.71 551.97 618.00 545.00
C 616.94 552.97 624.60 548.62 629.67 552.33 C 634.75 556.04 633.67 560.57 637.00 566.00
C 641.39 562.89 645.07 570.30 649.00 566.00
C 649.87 570.01 651.37 567.49 654.00 567.00
C 651.52 571.04 652.74 571.05 656.00 569.00
C 656.74 572.23 656.66 572.62 654.00 574.00
C 657.60 578.75 664.16 572.75 668.25 571.25 C 672.34 569.74 678.25 566.03 681.25 563.25 C 684.24 560.46 691.63 554.28 692.00 558.00
C 707.11 545.31 722.71 530.60 731.00 513.00
C 721.06 508.53 709.35 498.35 699.70 494.30 C 690.05 490.26 677.14 474.69 667.75 482.75 C 658.37 490.81 652.88 500.68 641.70 506.70 C 630.51 512.71 618.79 518.17 606.00 520.00
C 585.48 522.93 563.36 520.09 546.00 510.00
C 525.92 498.33 506.51 480.99 500.00 458.00
C 498.73 454.93 496.66 451.25 495.00 448.00
C 491.48 455.00 498.85 461.44 499.00 469.00
C 505.83 469.16 509.21 480.31 512.00 486.00
C 506.83 489.03 504.45 482.74 503.00 490.00
C 501.50 487.63 498.57 487.82 496.00 487.00
C 496.66 493.34 493.53 486.97 489.00 488.00
C 497.04 486.03 490.32 479.76 494.00 475.00
C 488.32 473.29 488.03 477.33 487.00 481.00
C 484.78 479.16 487.71 473.91 484.00 474.00
C 484.20 476.61 479.44 475.06 480.00 479.00
C 473.42 472.33 464.76 477.70 463.00 484.00
C 461.33 480.79 459.00 483.04 459.00 486.00
C 452.01 479.14 442.25 489.40 436.26 485.74 C 430.27 482.08 439.27 471.84 437.00 469.00
C 434.42 470.54 432.30 466.51 429.00 468.00
C 428.17 463.46 426.70 458.94 425.00 455.00 Z"/>
</g>
<g fill="None" fill-opacity="0.0" stroke="#9CA1C9" stroke-opacity="1.00" stroke-width="0.3"><path d="
M 191.00 472.00 
C 194.74 468.81 201.67 458.44 206.00 457.00
C 200.97 458.11 194.57 468.43 191.00 472.00 Z"/>
</g>
<g fill="None" fill-opacity="0.0" stroke="#4340A2" stroke-opacity="1.00" stroke-width="0.3"><path d="
M 180.00 482.00 
C 169.68 490.65 153.17 492.79 160.68 507.32 C 168.19 521.85 168.43 532.70 174.07 545.93 C 179.72 559.15 187.40 567.21 201.00 570.00 C 214.60 572.79 230.63 566.16 238.23 555.23 C 245.83 544.30 249.24 532.12 254.00 520.00
C 251.26 517.61 255.06 513.89 255.00 511.00
C 252.10 510.50 249.33 509.34 246.00 509.00
C 246.31 506.16 244.42 504.03 247.00 502.00
C 243.88 501.10 241.80 506.22 238.00 502.00
C 234.87 509.03 228.64 503.11 225.00 506.00
C 222.26 502.56 214.82 498.56 215.00 506.00
C 213.67 501.96 211.29 501.78 210.00 506.00
C 211.72 498.71 204.12 506.91 206.00 500.00
C 202.88 499.90 204.18 504.14 203.00 506.00
C 200.57 499.27 194.66 507.24 191.00 502.00
C 187.48 502.66 188.85 506.42 186.00 508.00
C 185.27 505.33 185.15 502.85 186.00 500.00
C 182.25 501.63 180.79 497.76 177.00 497.00
C 186.29 486.22 197.66 476.83 207.00 466.00
C 196.25 462.83 189.08 477.51 180.00 482.00 Z"/>
</g>
<g fill="None" fill-opacity="0.0" stroke="#433FA3" stroke-opacity="1.00" stroke-width="0.3"><path d="
M 288.00 502.00 
C 298.23 528.06 299.80 561.15 332.99 569.01 C 366.18 576.86 377.74 536.14 386.00 512.00
C 382.72 509.14 387.58 505.36 387.00 502.00
C 382.22 502.62 374.91 502.46 373.00 508.00
C 372.48 500.41 372.38 503.35 369.00 507.00
C 367.09 504.62 370.89 502.74 370.00 500.00
C 368.40 502.22 364.76 502.12 366.00 506.00
C 361.39 501.49 355.89 506.33 351.07 505.93 C 346.25 505.53 332.96 499.04 337.00 508.00
C 333.08 508.73 333.29 507.02 334.00 504.00
C 331.99 505.02 330.74 508.60 331.00 504.00
C 326.75 506.45 317.67 502.83 316.00 512.00
C 312.71 506.02 302.76 507.99 302.00 501.00
C 298.30 503.94 297.85 500.97 295.00 499.00
C 293.50 501.36 290.57 501.18 288.00 502.00 Z"/>
</g>
<g fill="None" fill-opacity="0.0" stroke="#D9F3EB" stroke-opacity="1.00" stroke-width="0.3"><path d="
M 606.00 520.00 
C 585.43 519.64 565.09 517.05 546.00 510.00
C 563.36 520.09 585.48 522.93 606.00 520.00 Z"/>
</g>
<g fill="None" fill-opacity="0.0" stroke="#1F705B" stroke-opacity="1.00" stroke-width="0.3"><path d="
M 692.00 558.00 
C 691.63 554.28 684.24 560.46 681.25 563.25 C 678.25 566.03 672.34 569.74 668.25 571.25 C 664.16 572.75 657.60 578.75 654.00 574.00
C 656.66 572.62 656.74 572.23 656.00 569.00
C 652.74 571.05 651.52 571.04 654.00 567.00
C 651.37 567.49 649.87 570.01 649.00 566.00
C 645.07 570.30 641.39 562.89 637.00 566.00
C 633.67 560.57 634.75 556.04 629.67 552.33 C 624.60 548.62 616.94 552.97 618.00 545.00
C 615.71 551.97 609.37 543.97 605.00 549.00
C 610.73 547.42 605.85 553.22 604.00 555.00
C 607.44 554.60 609.40 555.45 613.00 556.00
C 609.60 560.19 615.34 562.28 617.00 566.00
C 614.66 569.99 608.83 569.54 606.00 567.00
C 610.26 563.80 608.07 559.15 604.00 563.00
C 603.06 559.81 605.22 558.21 606.00 556.00
C 594.20 551.80 582.79 554.13 574.00 558.00
C 573.78 555.28 578.34 555.39 577.00 552.00
C 573.88 556.00 568.46 551.56 563.00 555.00
C 566.01 551.75 560.33 551.36 558.00 549.00
C 557.96 550.31 561.67 554.07 559.00 553.00
C 558.12 553.38 548.14 551.02 555.00 549.00
C 551.43 548.58 549.14 545.67 545.00 546.00
C 545.57 540.08 526.84 538.90 530.00 545.00
C 525.41 538.86 520.20 548.61 514.00 550.00
C 509.16 541.50 492.65 540.32 495.00 529.00
C 486.81 526.77 476.77 528.45 471.00 534.00
C 467.29 533.86 458.82 531.36 460.00 527.00
C 456.31 531.91 467.62 536.94 470.00 542.00
C 477.40 541.06 483.52 528.19 490.75 534.25 C 497.98 540.31 501.68 543.54 509.77 548.23 C 517.86 552.92 508.86 563.72 508.00 571.00
C 515.41 574.41 522.73 578.94 530.32 581.68 C 537.91 584.41 547.13 588.09 554.98 589.02 C 562.82 589.95 576.46 595.07 583.92 592.92 C 591.37 590.76 583.52 571.35 595.00 572.00 C 606.48 572.65 614.07 570.45 624.33 568.33 C 634.59 566.21 635.38 578.68 639.00 585.00
C 658.04 580.25 676.78 571.00 692.00 558.00 Z"/>
</g>
<g fill="#FEFEFE" fill-opacity="1.00" stroke="None">
<path d="
M 0.00 819.00 
L 819.00 819.00
L 819.00 0.00
L 0.00 0.00
L 0.00 819.00
M 335.00 361.00 
C 338.34 364.34 340.67 368.67 344.00 372.00
C 349.08 377.08 364.38 392.98 349.99 394.99 C 335.60 397.00 324.07 395.10 310.00 397.00
C 310.37 402.05 313.86 406.16 315.00 411.00
C 321.63 428.95 330.33 446.09 337.00 464.00
C 340.54 461.62 340.61 456.70 342.00 453.00
C 349.65 430.63 360.56 413.31 372.00 393.00
C 375.12 387.46 379.71 380.70 385.00 377.00
C 385.23 376.84 385.00 376.00 385.00 376.00
C 387.21 371.47 394.00 365.85 398.00 363.00
C 402.23 359.98 406.72 357.54 411.00 355.00
C 415.49 352.34 419.57 349.37 425.00 348.00
C 437.66 344.82 449.36 352.28 456.00 363.00
C 461.91 370.64 466.68 378.78 470.00 388.00
C 476.27 405.43 483.65 422.98 491.00 440.00
C 494.23 445.92 498.07 451.20 500.00 458.00
C 506.51 480.99 525.92 498.33 546.00 510.00
C 565.09 517.05 585.43 519.64 606.00 520.00
C 618.79 518.17 630.51 512.71 641.70 506.70 C 652.88 500.68 658.37 490.81 667.75 482.75 C 677.14 474.69 690.05 490.26 699.70 494.30 C 709.35 498.35 721.06 508.53 731.00 513.00
C 722.71 530.60 707.11 545.31 692.00 558.00
C 676.78 571.00 658.04 580.25 639.00 585.00
C 635.38 578.68 634.59 566.21 624.33 568.33 C 614.07 570.45 606.48 572.65 595.00 572.00 C 583.52 571.35 591.37 590.76 583.92 592.92 C 576.46 595.07 562.82 589.95 554.98 589.02 C 547.13 588.09 537.91 584.41 530.32 581.68 C 522.73 578.94 515.41 574.41 508.00 571.00
C 508.86 563.72 517.86 552.92 509.77 548.23 C 501.68 543.54 497.98 540.31 490.75 534.25 C 483.52 528.19 477.40 541.06 470.00 542.00
C 467.62 536.94 456.31 531.91 460.00 527.00
C 463.98 520.35 473.57 514.57 466.75 507.25 C 459.93 499.94 460.14 493.67 455.00 486.00
C 448.05 485.86 441.60 487.63 435.00 489.00
C 430.75 481.09 428.88 472.38 426.00 464.00
C 422.64 457.56 419.86 447.50 420.07 439.93 C 420.29 432.36 415.50 417.40 420.26 411.26 C 425.02 405.12 442.21 412.77 440.99 400.99 C 439.77 389.21 448.94 386.67 439.00 378.00
C 435.80 375.62 432.43 373.67 429.00 372.00
C 426.03 372.95 421.14 372.00 418.00 372.00
C 417.50 372.00 416.49 371.95 416.00 372.00
C 414.72 372.14 413.64 372.91 413.00 374.00
C 411.14 377.16 410.67 383.31 410.00 387.00
C 407.76 399.25 404.17 411.78 406.00 425.00 C 407.83 438.22 408.27 449.52 404.00 462.00
C 398.26 478.78 391.74 495.23 386.00 512.00
C 377.74 536.14 366.18 576.86 332.99 569.01 C 299.80 561.15 298.23 528.06 288.00 502.00
C 283.77 491.22 278.97 479.43 274.00 469.00
C 267.43 486.06 260.12 502.79 254.00 520.00
C 249.24 532.12 245.83 544.30 238.23 555.23 C 230.63 566.16 214.60 572.79 201.00 570.00 C 187.40 567.21 179.72 559.15 174.07 545.93 C 168.43 532.70 168.19 521.85 160.68 507.32 C 153.17 492.79 169.68 490.65 180.00 482.00
C 183.69 478.91 187.26 475.19 191.00 472.00
C 194.57 468.43 200.97 458.11 206.00 457.00
C 208.81 456.38 208.34 460.76 210.00 463.00
C 218.58 449.35 224.37 432.46 220.00 416.00
C 212.82 427.01 205.03 438.10 195.00 447.00
C 183.43 460.28 173.41 470.15 157.77 478.77 C 142.13 487.39 121.57 492.49 104.77 481.23 C 87.97 469.97 85.37 449.95 92.00 432.00
C 95.61 422.21 102.15 413.12 110.00 406.00
C 112.95 411.87 116.99 419.11 111.25 424.25 C 105.50 429.38 104.49 436.39 102.00 443.00
C 101.94 443.49 102.00 444.50 102.00 445.00
C 102.00 447.96 101.73 451.06 102.00 454.00
C 109.13 488.44 149.22 472.20 167.00 457.00
C 174.58 449.42 182.46 441.54 190.00 434.00
C 200.70 421.48 211.96 407.55 219.00 393.00
C 222.08 377.30 217.39 360.83 217.67 345.33 C 217.95 329.83 216.77 316.88 217.00 300.00 C 217.23 283.12 216.73 269.00 217.00 251.00 C 217.27 233.00 235.94 246.42 241.75 256.25 C 247.56 266.07 257.72 272.52 265.25 281.75 C 272.78 290.98 280.60 300.03 288.75 308.25 C 296.91 316.46 303.89 325.66 311.92 334.08 C 319.95 342.50 328.56 351.80 335.00 361.00
M 610.00 257.00 
C 613.23 257.94 616.39 259.36 620.00 259.00
C 617.16 270.46 620.54 281.66 631.67 282.33 C 642.81 283.00 647.23 291.13 657.08 292.92 C 666.92 294.72 667.94 275.41 676.25 279.76 C 684.55 284.10 689.89 288.63 696.75 294.25 C 703.61 299.87 709.22 305.29 715.25 311.75 C 721.28 318.21 727.15 325.02 730.00 333.00
C 730.39 340.46 713.55 341.26 709.25 348.25 C 704.96 355.25 691.38 355.61 685.75 362.75 C 680.13 369.90 667.11 371.65 661.75 362.25 C 656.38 352.86 649.68 350.66 641.77 344.23 C 633.86 337.80 624.78 336.90 614.99 333.01 C 605.20 329.11 591.33 329.00 580.00 329.00
C 537.90 329.00 502.05 369.50 494.00 408.00
C 481.93 383.51 474.02 351.62 448.00 337.00
C 450.64 330.10 456.71 324.50 460.00 318.00
C 463.99 312.30 470.33 302.82 476.75 299.75 C 483.16 296.68 489.94 285.59 496.23 284.23 C 502.52 282.87 509.39 302.28 516.25 295.25 C 523.10 288.21 534.71 291.57 539.75 283.75 C 544.79 275.92 535.72 262.84 548.00 261.00 C 560.29 259.17 565.75 256.07 577.67 255.67 C 589.59 255.27 599.23 253.87 610.00 257.00
M 160.00 317.00 
C 160.65 318.70 161.42 320.27 162.00 322.00
C 166.60 331.60 170.19 342.48 173.00 353.00
C 175.15 361.06 178.29 369.08 181.00 377.00
C 184.28 386.60 193.78 400.79 190.24 410.25 C 186.71 419.70 176.03 427.19 169.25 435.25 C 162.47 443.31 152.43 452.07 143.00 456.00
C 135.60 430.31 124.38 405.73 117.00 380.00
C 111.91 371.69 109.41 360.35 106.00 351.00
C 103.52 345.99 101.18 340.75 100.00 335.00
C 99.58 332.95 99.32 331.11 99.00 329.00
C 98.19 326.66 96.10 323.21 95.00 321.00
C 88.51 308.02 86.35 301.74 85.00 286.00 C 83.65 270.26 107.54 273.00 118.00 273.00 C 128.46 273.00 137.93 279.23 147.23 285.77 C 156.53 292.31 158.65 308.22 160.00 317.00
M 427.00 334.00 
C 423.12 334.30 419.64 334.79 416.00 336.00
C 399.92 341.36 387.53 354.51 375.00 366.00
C 375.49 361.10 378.51 356.93 379.00 352.00
C 382.35 336.08 389.97 318.92 395.31 304.31 C 400.64 289.69 413.42 273.34 431.00 275.00
C 431.50 275.05 432.00 275.00 432.00 275.00
C 438.30 270.34 449.91 275.75 458.00 274.00 C 466.09 272.25 470.61 285.22 467.67 291.67 C 464.73 298.12 459.90 301.22 454.77 305.77 C 449.63 310.31 446.36 315.96 443.22 322.22 C 440.09 328.49 434.77 333.41 427.00 334.00
M 592.00 425.00 
C 589.60 432.19 586.04 439.42 585.00 447.00
C 584.10 453.59 581.85 463.11 573.00 460.00 C 564.15 456.89 571.81 449.42 573.32 444.32 C 574.83 439.22 578.12 431.80 579.93 425.93 C 581.73 420.05 584.55 412.65 586.33 406.33 C 588.11 400.00 592.50 393.89 592.99 386.99 C 593.48 380.09 608.68 382.21 607.59 388.75 C 606.51 395.29 600.71 400.06 599.74 406.74 C 598.77 413.43 595.28 419.48 592.00 425.00
M 566.00 399.00 
C 570.10 414.74 549.34 412.60 542.00 421.00
C 551.26 425.76 569.55 427.50 566.00 442.00
C 554.03 437.35 543.10 430.31 531.00 426.00
C 531.00 422.00 531.00 418.00 531.00 414.00
C 543.08 410.23 553.80 402.37 566.00 399.00
M 646.00 426.00 
C 634.11 430.65 623.08 437.80 611.00 442.00
C 611.00 438.33 611.00 434.67 611.00 431.00
C 619.58 429.30 626.50 422.92 635.00 421.00
C 628.60 412.75 606.71 414.84 611.00 399.00
C 618.88 400.94 624.99 405.31 632.70 408.31 C 640.40 411.30 649.62 415.30 646.00 426.00 Z"/>
</g>
<g fill="#DDF6FC" fill-opacity="1.00" stroke="None">
<path d="
M 219.00 393.00 
C 220.79 389.30 221.00 386.60 221.00 382.00
C 220.04 372.05 220.00 360.65 220.00 350.00
C 220.00 341.33 220.00 332.67 220.00 324.00
C 217.49 298.09 219.67 270.43 218.00 244.00
C 236.04 243.59 243.81 264.35 255.75 275.25 C 267.69 286.14 277.45 299.74 289.00 311.00
C 303.65 328.14 319.14 345.14 335.00 361.00
C 328.56 351.80 319.95 342.50 311.92 334.08 C 303.89 325.66 296.91 316.46 288.75 308.25 C 280.60 300.03 272.78 290.98 265.25 281.75 C 257.72 272.52 247.56 266.07 241.75 256.25 C 235.94 246.42 217.27 233.00 217.00 251.00 C 216.73 269.00 217.23 283.12 217.00 300.00 C 216.77 316.88 217.95 329.83 217.67 345.33 C 217.39 360.83 222.08 377.30 219.00 393.00 Z"/>
</g>
<g fill="#48ABD0" fill-opacity="1.00" stroke="None">
<path d="
M 220.00 324.00 
C 220.00 320.00 220.00 316.00 220.00 312.00
C 222.56 313.40 226.95 313.25 226.00 309.00
C 227.26 309.08 226.56 311.06 228.00 311.00
C 228.00 293.67 228.00 276.33 228.00 259.00
C 243.90 274.47 258.73 291.29 273.00 308.00
C 277.26 311.64 281.03 316.03 285.00 320.00
C 282.27 316.80 280.57 314.15 280.00 310.00
C 282.64 309.85 284.40 308.66 283.00 306.00
C 285.41 307.11 286.62 309.96 289.00 311.00
C 277.45 299.74 267.69 286.14 255.75 275.25 C 243.81 264.35 236.04 243.59 218.00 244.00
C 219.67 270.43 217.49 298.09 220.00 324.00 Z"/>
</g>
<g fill="#D6FADC" fill-opacity="1.00" stroke="None">
<path d="
M 460.00 318.00 
C 461.67 315.97 464.27 314.02 466.00 312.00
C 469.37 308.06 473.11 304.33 477.00 301.00
C 483.63 295.33 496.02 279.44 503.25 291.75 C 510.48 304.06 524.37 293.45 534.00 289.00
C 537.32 286.81 544.11 286.24 543.66 281.32 C 543.21 276.40 541.66 269.35 542.00 264.00
C 563.39 256.80 586.62 256.46 610.00 257.00
C 599.23 253.87 589.59 255.27 577.67 255.67 C 565.75 256.07 560.29 259.17 548.00 261.00 C 535.72 262.84 544.79 275.92 539.75 283.75 C 534.71 291.57 523.10 288.21 516.25 295.25 C 509.39 302.28 502.52 282.87 496.23 284.23 C 489.94 285.59 483.16 296.68 476.75 299.75 C 470.33 302.82 463.99 312.30 460.00 318.00 Z"/>
</g>
<g fill="#46C058" fill-opacity="1.00" stroke="None">
<path d="
M 534.00 289.00 
C 528.05 292.92 520.65 296.83 514.25 300.25 C 507.86 303.68 501.53 289.89 497.00 287.00
C 491.52 290.40 485.79 294.50 481.25 299.25 C 476.70 304.00 469.03 309.66 475.00 315.00
C 471.22 316.69 470.21 316.65 467.00 314.00
C 464.07 317.89 460.42 321.43 459.00 326.00
C 466.16 323.00 470.04 327.34 476.00 326.00
C 474.11 322.44 478.19 322.25 478.00 319.00
C 482.13 321.02 483.44 320.87 487.00 321.00
C 484.54 325.90 475.25 322.65 478.00 330.00
C 482.57 326.87 492.71 330.25 493.00 324.00
C 497.43 323.43 502.78 332.18 507.00 328.00
C 508.15 335.61 522.18 328.86 520.00 337.00
C 525.48 336.15 527.18 340.61 530.00 343.00
C 528.60 339.27 531.97 336.34 535.00 341.00
C 539.25 340.94 539.32 337.15 543.00 337.00
C 543.61 334.29 539.17 336.66 540.00 333.00
C 555.10 332.87 576.67 324.22 595.00 328.00
C 603.74 328.47 608.66 328.96 617.22 331.78 C 625.78 334.59 626.61 333.56 636.08 338.92 C 645.54 344.29 657.94 353.26 664.30 362.70 C 670.67 372.13 676.27 365.95 682.08 363.08 C 687.88 360.20 693.24 356.51 698.08 353.08 C 702.93 349.65 710.42 346.95 714.08 343.08 C 717.74 339.21 728.56 337.60 730.00 333.00
C 727.15 325.02 721.28 318.21 715.25 311.75 C 709.22 305.29 703.61 299.87 696.75 294.25 C 689.89 288.63 684.55 284.10 676.25 279.76 C 667.94 275.41 666.92 294.72 657.08 292.92 C 647.23 291.13 642.81 283.00 631.67 282.33 C 620.54 281.66 617.16 270.46 620.00 259.00
C 616.39 259.36 613.23 257.94 610.00 257.00
C 586.62 256.46 563.39 256.80 542.00 264.00
C 541.66 269.35 543.21 276.40 543.66 281.32 C 544.11 286.24 537.32 286.81 534.00 289.00 Z"/>
</g>
<g fill="#CDF0F8" fill-opacity="1.00" stroke="None">
<path d="
M 228.00 311.00 
C 228.00 327.49 229.00 343.39 229.00 360.00
C 229.27 359.75 230.00 360.00 230.00 360.00
C 230.00 327.49 228.66 294.90 230.00 263.00
C 245.52 276.90 256.76 294.62 273.00 308.00
C 258.73 291.29 243.90 274.47 228.00 259.00
C 228.00 276.33 228.00 293.67 228.00 311.00 Z"/>
</g>
<g fill="#FBFDFD" fill-opacity="1.00" stroke="None">
<path d="
M 230.00 360.00 
C 230.00 365.00 230.00 370.00 230.00 375.00
C 230.00 392.93 231.13 410.08 231.00 428.00
C 237.76 424.31 242.68 417.09 249.25 413.25 C 255.82 409.41 260.63 401.44 267.75 398.75 C 274.87 396.06 276.69 412.35 279.98 418.02 C 283.26 423.70 287.40 435.50 290.00 442.00
C 293.68 451.37 298.51 457.03 300.77 467.23 C 303.04 477.42 315.49 479.66 322.69 471.70 C 329.90 463.73 318.94 454.30 317.23 445.77 C 315.52 437.24 308.33 428.52 306.23 419.77 C 304.13 411.02 297.51 401.96 296.00 393.00
C 295.87 392.22 294.12 390.44 295.00 389.00
C 311.31 387.91 327.57 386.65 344.00 386.00
C 342.27 383.08 338.91 381.35 338.00 378.00
C 321.28 358.05 301.99 339.88 285.00 320.00
C 281.03 316.03 277.26 311.64 273.00 308.00
C 256.76 294.62 245.52 276.90 230.00 263.00
C 228.66 294.90 230.00 327.49 230.00 360.00 Z"/>
</g>
<g fill="#DBF7FC" fill-opacity="1.00" stroke="None">
<path d="
M 95.00 321.00 
C 90.57 307.36 88.74 303.57 87.00 288.00 C 85.26 272.43 105.35 275.83 117.00 276.00 C 128.65 276.17 138.19 280.68 146.25 288.75 C 154.31 296.83 156.17 306.91 160.00 317.00
C 158.65 308.22 156.53 292.31 147.23 285.77 C 137.93 279.23 128.46 273.00 118.00 273.00 C 107.54 273.00 83.65 270.26 85.00 286.00 C 86.35 301.74 88.51 308.02 95.00 321.00 Z"/>
</g>
<g fill="#DBF7FA" fill-opacity="1.00" stroke="None">
<path d="
M 432.00 275.00 
C 440.56 274.99 452.46 273.22 460.00 276.00
C 475.77 281.82 460.19 298.08 452.75 304.75 C 445.32 311.43 438.39 324.70 433.00 333.00
C 431.12 333.47 428.07 331.94 427.00 334.00
C 434.77 333.41 440.09 328.49 443.22 322.22 C 446.36 315.96 449.63 310.31 454.77 305.77 C 459.90 301.22 464.73 298.12 467.67 291.67 C 470.61 285.22 466.09 272.25 458.00 274.00 C 449.91 275.75 438.30 270.34 432.00 275.00 Z"/>
</g>
<g fill="#DBF7FB" fill-opacity="1.00" stroke="None">
<path d="
M 379.00 352.00 
C 383.20 341.29 388.10 330.12 392.00 319.00
C 398.97 299.16 406.90 279.26 431.00 276.00
C 431.07 275.99 431.00 275.00 431.00 275.00
C 413.42 273.34 400.64 289.69 395.31 304.31 C 389.97 318.92 382.35 336.08 379.00 352.00 Z"/>
</g>
<g fill="#9DD4DF" fill-opacity="1.00" stroke="None">
<path d="
M 431.00 276.00 
C 440.28 276.84 450.93 273.99 460.00 276.00
C 452.46 273.22 440.56 274.99 432.00 275.00
C 432.00 275.00 431.50 275.05 431.00 275.00
C 431.00 275.00 431.07 275.99 431.00 276.00 Z"/>
</g>
<g fill="#3CA5D5" fill-opacity="1.00" stroke="None">
<path d="
M 95.00 321.00 
C 96.10 323.21 98.19 326.66 99.00 329.00
C 98.46 325.40 98.01 322.44 97.00 319.00
C 99.92 320.34 102.18 320.11 105.00 321.00
C 105.03 315.29 113.17 317.47 111.00 313.00
C 114.51 316.59 120.86 317.07 124.00 313.00
C 125.68 314.77 125.98 316.91 127.00 319.00
C 128.73 316.58 133.23 316.61 135.00 319.00
C 136.71 312.68 141.95 321.25 145.00 315.00
C 144.86 317.50 147.58 320.46 147.00 316.00
C 149.92 318.28 153.89 322.10 158.00 319.00
C 159.25 320.04 160.43 321.23 161.00 323.00
C 161.07 323.18 162.00 323.00 162.00 323.00
C 161.82 322.57 162.00 322.00 162.00 322.00
C 161.42 320.27 160.65 318.70 160.00 317.00
C 156.17 306.91 154.31 296.83 146.25 288.75 C 138.19 280.68 128.65 276.17 117.00 276.00 C 105.35 275.83 85.26 272.43 87.00 288.00 C 88.74 303.57 90.57 307.36 95.00 321.00 Z"/>
</g>
<g fill="#3CA6CA" fill-opacity="1.00" stroke="None">
<path d="
M 392.00 319.00 
C 392.45 321.58 396.76 322.50 397.00 325.00
C 400.60 321.57 402.91 326.07 408.00 326.00
C 409.57 322.15 411.62 323.69 414.00 325.00
C 414.17 321.87 409.88 322.32 412.00 319.00
C 413.96 319.28 413.99 321.05 415.00 323.00
C 417.59 319.87 416.50 319.15 421.00 323.00
C 419.05 320.94 418.55 315.97 422.00 320.00
C 421.74 315.62 425.71 315.69 429.00 318.00
C 429.57 314.53 434.39 314.43 435.00 318.00
C 437.04 316.35 438.41 314.83 442.00 315.00
C 440.46 321.69 433.13 325.66 431.00 332.00
C 425.92 332.40 418.98 331.14 416.00 336.00
C 419.64 334.79 423.12 334.30 427.00 334.00
C 428.07 331.94 431.12 333.47 433.00 333.00
C 438.39 324.70 445.32 311.43 452.75 304.75 C 460.19 298.08 475.77 281.82 460.00 276.00
C 450.93 273.99 440.28 276.84 431.00 276.00
C 406.90 279.26 398.97 299.16 392.00 319.00 Z"/>
</g>
<g fill="#40AE65" fill-opacity="1.00" stroke="None">
<path d="
M 477.00 301.00 
C 473.41 304.59 469.54 308.46 466.00 312.00
C 464.27 314.02 461.67 315.97 460.00 318.00
C 456.71 324.50 450.64 330.10 448.00 337.00
C 474.02 351.62 481.93 383.51 494.00 408.00
C 502.05 369.50 537.90 329.00 580.00 329.00
C 584.39 328.58 589.91 327.72 595.00 328.00
C 576.67 324.22 555.10 332.87 540.00 333.00
C 539.17 336.66 543.61 334.29 543.00 337.00
C 539.32 337.15 539.25 340.94 535.00 341.00
C 531.97 336.34 528.60 339.27 530.00 343.00
C 527.18 340.61 525.48 336.15 520.00 337.00
C 522.18 328.86 508.15 335.61 507.00 328.00
C 502.78 332.18 497.43 323.43 493.00 324.00
C 492.71 330.25 482.57 326.87 478.00 330.00
C 475.25 322.65 484.54 325.90 487.00 321.00
C 483.44 320.87 482.13 321.02 478.00 319.00
C 478.19 322.25 474.11 322.44 476.00 326.00
C 470.04 327.34 466.16 323.00 459.00 326.00
C 460.42 321.43 464.07 317.89 467.00 314.00
C 470.21 316.65 471.22 316.69 475.00 315.00
C 469.03 309.66 476.70 304.00 481.25 299.25 C 485.79 294.50 491.52 290.40 497.00 287.00
C 501.53 289.89 507.86 303.68 514.25 300.25 C 520.65 296.83 528.05 292.92 534.00 289.00
C 524.37 293.45 510.48 304.06 503.25 291.75 C 496.02 279.44 483.63 295.33 477.00 301.00 Z"/>
</g>
<g fill="#8DD2A1" fill-opacity="1.00" stroke="None">
<path d="
M 466.00 312.00 
C 469.54 308.46 473.41 304.59 477.00 301.00
C 473.11 304.33 469.37 308.06 466.00 312.00 Z"/>
</g>
<g fill="#4789C1" fill-opacity="1.00" stroke="None">
<path d="
M 285.00 320.00 
C 301.99 339.88 321.28 358.05 338.00 378.00
C 336.76 376.26 335.05 374.80 334.00 373.00
C 335.98 371.69 335.75 368.91 337.00 367.00
C 339.36 368.74 341.51 370.55 344.00 372.00
C 340.67 368.67 338.34 364.34 335.00 361.00
C 319.14 345.14 303.65 328.14 289.00 311.00
C 286.62 309.96 285.41 307.11 283.00 306.00
C 284.40 308.66 282.64 309.85 280.00 310.00
C 280.57 314.15 282.27 316.80 285.00 320.00 Z"/>
</g>
<g fill="#3E89C1" fill-opacity="1.00" stroke="None">
<path d="
M 220.00 324.00 
C 220.00 332.67 220.00 341.33 220.00 350.00
C 220.17 351.47 220.94 353.90 221.00 356.00
C 221.39 358.99 222.79 363.31 222.00 367.00
C 224.19 364.15 226.09 363.50 228.00 367.00
C 228.28 365.72 227.24 363.50 229.00 363.00
C 229.00 362.00 229.00 361.00 229.00 360.00
C 229.00 343.39 228.00 327.49 228.00 311.00
C 226.56 311.06 227.26 309.08 226.00 309.00
C 226.95 313.25 222.56 313.40 220.00 312.00
C 220.00 316.00 220.00 320.00 220.00 324.00 Z"/>
</g>
<g fill="#3A96D0" fill-opacity="1.00" stroke="None">
<path d="
M 99.00 329.00 
C 99.32 331.11 99.58 332.95 100.00 335.00
C 100.03 335.12 101.00 335.00 101.00 335.00
C 100.82 335.14 109.83 349.39 111.00 351.00
C 114.85 348.44 116.47 352.10 117.00 346.00
C 120.78 347.28 115.32 349.63 119.00 351.00
C 121.81 348.58 124.80 348.36 122.00 352.00
C 124.64 350.10 126.25 354.77 126.00 350.00
C 132.28 349.87 142.64 347.54 148.22 347.22 C 153.81 346.90 160.24 343.42 164.00 347.00
C 169.22 340.06 162.65 331.22 161.00 323.00
C 160.43 321.23 159.25 320.04 158.00 319.00
C 153.89 322.10 149.92 318.28 147.00 316.00
C 147.58 320.46 144.86 317.50 145.00 315.00
C 141.95 321.25 136.71 312.68 135.00 319.00
C 133.23 316.61 128.73 316.58 127.00 319.00
C 125.98 316.91 125.68 314.77 124.00 313.00
C 120.86 317.07 114.51 316.59 111.00 313.00
C 113.17 317.47 105.03 315.29 105.00 321.00
C 102.18 320.11 99.92 320.34 97.00 319.00
C 98.01 322.44 98.46 325.40 99.00 329.00 Z"/>
</g>
<g fill="#4198C7" fill-opacity="1.00" stroke="None">
<path d="
M 392.00 319.00 
C 388.10 330.12 383.20 341.29 379.00 352.00
C 378.51 356.93 375.49 361.10 375.00 366.00
C 387.53 354.51 399.92 341.36 416.00 336.00
C 418.98 331.14 425.92 332.40 431.00 332.00
C 433.13 325.66 440.46 321.69 442.00 315.00
C 438.41 314.83 437.04 316.35 435.00 318.00
C 434.39 314.43 429.57 314.53 429.00 318.00
C 425.71 315.69 421.74 315.62 422.00 320.00
C 418.55 315.97 419.05 320.94 421.00 323.00
C 416.50 319.15 417.59 319.87 415.00 323.00
C 413.99 321.05 413.96 319.28 412.00 319.00
C 409.88 322.32 414.17 321.87 414.00 325.00
C 411.62 323.69 409.57 322.15 408.00 326.00
C 402.91 326.07 400.60 321.57 397.00 325.00
C 396.76 322.50 392.45 321.58 392.00 319.00 Z"/>
</g>
<g fill="#B9DFF1" fill-opacity="1.00" stroke="None">
<path d="
M 162.00 323.00 
C 166.02 332.75 169.45 343.39 173.00 353.00
C 170.19 342.48 166.60 331.60 162.00 322.00
C 162.00 322.00 161.82 322.57 162.00 323.00 Z"/>
</g>
<g fill="#3F84C7" fill-opacity="1.00" stroke="None">
<path d="
M 101.00 335.00 
C 101.59 340.15 104.21 346.09 106.00 351.00
C 109.41 360.35 111.91 371.69 117.00 380.00
C 119.21 383.61 121.28 387.57 122.00 392.00
C 122.65 388.14 126.89 387.56 129.00 385.00
C 130.51 389.01 130.50 385.97 134.00 386.00
C 134.94 390.68 137.42 387.01 137.00 384.00
C 140.50 386.69 143.99 391.78 149.00 392.00
C 146.27 390.37 148.70 388.96 150.00 387.00
C 153.09 389.73 153.28 389.95 157.00 388.00
C 157.47 391.76 160.28 392.65 160.00 388.00
C 162.09 389.20 159.76 393.44 163.00 394.00
C 162.86 386.21 172.45 386.27 178.00 386.00
C 179.03 383.10 179.88 379.95 181.00 377.00
C 178.29 369.08 175.15 361.06 173.00 353.00
C 169.45 343.39 166.02 332.75 162.00 323.00
C 162.00 323.00 161.07 323.18 161.00 323.00
C 162.65 331.22 169.22 340.06 164.00 347.00
C 160.24 343.42 153.81 346.90 148.22 347.22 C 142.64 347.54 132.28 349.87 126.00 350.00
C 126.25 354.77 124.64 350.10 122.00 352.00
C 124.80 348.36 121.81 348.58 119.00 351.00
C 115.32 349.63 120.78 347.28 117.00 346.00
C 116.47 352.10 114.85 348.44 111.00 351.00
C 109.83 349.39 100.82 335.14 101.00 335.00 Z"/>
</g>
<g fill="#E0FBE4" fill-opacity="1.00" stroke="None">
<path d="
M 580.00 329.00 
C 591.33 329.00 605.20 329.11 614.99 333.01 C 624.78 336.90 633.86 337.80 641.77 344.23 C 649.68 350.66 656.38 352.86 661.75 362.25 C 667.11 371.65 680.13 369.90 685.75 362.75 C 691.38 355.61 704.96 355.25 709.25 348.25 C 713.55 341.26 730.39 340.46 730.00 333.00
C 728.56 337.60 717.74 339.21 714.08 343.08 C 710.42 346.95 702.93 349.65 698.08 353.08 C 693.24 356.51 687.88 360.20 682.08 363.08 C 676.27 365.95 670.67 372.13 664.30 362.70 C 657.94 353.26 645.54 344.29 636.08 338.92 C 626.61 333.56 625.78 334.59 617.22 331.78 C 608.66 328.96 603.74 328.47 595.00 328.00
C 589.91 327.72 584.39 328.58 580.00 329.00 Z"/>
</g>
<g fill="#BFE4F4" fill-opacity="1.00" stroke="None">
<path d="
M 106.00 351.00 
C 104.21 346.09 101.59 340.15 101.00 335.00
C 101.00 335.00 100.03 335.12 100.00 335.00
C 101.18 340.75 103.52 345.99 106.00 351.00 Z"/>
</g>
<g fill="#37927C" fill-opacity="1.00" stroke="None">
<path d="
M 425.00 348.00 
C 425.26 350.77 426.88 351.92 429.00 354.00
C 424.57 358.81 426.98 365.19 428.00 371.00
C 428.35 371.05 428.73 371.87 429.00 372.00
C 432.43 373.67 435.80 375.62 439.00 378.00
C 442.01 380.24 444.61 382.22 445.00 386.00
C 445.24 382.56 443.46 379.29 443.00 375.00
C 445.52 375.07 447.73 373.92 450.00 373.00
C 449.18 369.24 452.50 366.94 454.00 364.00
C 457.00 365.06 457.01 368.99 460.00 370.00
C 458.61 367.66 457.42 365.29 456.00 363.00
C 449.36 352.28 437.66 344.82 425.00 348.00 Z"/>
</g>
<g fill="#39888D" fill-opacity="1.00" stroke="None">
<path d="
M 411.00 355.00 
C 409.48 358.39 415.19 366.15 418.00 368.00
C 417.45 369.46 415.60 370.18 416.00 372.00
C 416.49 371.95 417.50 372.00 418.00 372.00
C 420.63 370.88 424.70 370.52 428.00 371.00
C 426.98 365.19 424.57 358.81 429.00 354.00
C 426.88 351.92 425.26 350.77 425.00 348.00
C 419.57 349.37 415.49 352.34 411.00 355.00 Z"/>
</g>
<g fill="#81A7CE" fill-opacity="1.00" stroke="None">
<path d="
M 221.00 382.00 
C 221.00 373.35 221.24 364.65 221.00 356.00
C 220.94 353.90 220.17 351.47 220.00 350.00
C 220.00 360.65 220.04 372.05 221.00 382.00 Z"/>
</g>
<g fill="#3F839B" fill-opacity="1.00" stroke="None">
<path d="
M 398.00 363.00 
C 393.40 366.85 389.98 372.52 385.00 376.00
C 385.00 376.00 385.23 376.84 385.00 377.00
C 388.67 373.33 392.99 369.67 397.00 367.00
C 402.31 369.40 407.72 372.16 413.00 371.00
C 413.00 372.00 413.00 373.00 413.00 374.00
C 413.64 372.91 414.72 372.14 416.00 372.00
C 415.60 370.18 417.45 369.46 418.00 368.00
C 415.19 366.15 409.48 358.39 411.00 355.00
C 406.72 357.54 402.23 359.98 398.00 363.00 Z"/>
</g>
<g fill="#4262B1" fill-opacity="1.00" stroke="None">
<path d="
M 221.00 382.00 
C 221.00 386.60 220.79 389.30 219.00 393.00
C 211.96 407.55 200.70 421.48 190.00 434.00
C 188.64 435.59 187.25 437.39 186.00 439.00
C 186.06 438.91 185.37 442.42 184.00 443.00
C 187.24 445.43 191.53 445.84 195.00 447.00
C 205.03 438.10 212.82 427.01 220.00 416.00
C 224.37 432.46 218.58 449.35 210.00 463.00
C 212.30 466.10 216.17 467.37 219.00 464.00
C 213.11 470.23 229.85 472.99 223.00 469.00
C 226.24 469.54 231.79 466.11 231.00 472.00
C 236.51 470.81 242.87 470.33 244.00 463.00
C 249.74 467.78 256.82 462.26 262.00 465.00
C 263.81 464.86 264.61 463.19 263.00 461.00
C 266.07 464.18 272.97 461.96 275.30 462.29 C 277.63 462.61 280.32 458.88 284.00 462.00
C 289.47 459.75 284.17 454.98 284.00 451.00
C 290.28 450.45 289.12 445.65 290.00 442.00
C 287.40 435.50 283.26 423.70 279.98 418.02 C 276.69 412.35 274.87 396.06 267.75 398.75 C 260.63 401.44 255.82 409.41 249.25 413.25 C 242.68 417.09 237.76 424.31 231.00 428.00
C 231.13 410.08 230.00 392.93 230.00 375.00
C 229.67 371.60 229.00 367.08 229.00 363.00
C 227.24 363.50 228.28 365.72 228.00 367.00
C 226.09 363.50 224.19 364.15 222.00 367.00
C 222.79 363.31 221.39 358.99 221.00 356.00
C 221.24 364.65 221.00 373.35 221.00 382.00 Z"/>
</g>
<g fill="#92B5DB" fill-opacity="1.00" stroke="None">
<path d="
M 229.00 363.00 
C 229.00 367.08 229.67 371.60 230.00 375.00
C 230.00 370.00 230.00 365.00 230.00 360.00
C 230.00 360.00 229.27 359.75 229.00 360.00
C 229.00 361.00 229.00 362.00 229.00 363.00 Z"/>
</g>
<g fill="#CFEAF9" fill-opacity="1.00" stroke="None">
<path d="
M 385.00 376.00 
C 389.98 372.52 393.40 366.85 398.00 363.00
C 394.00 365.85 387.21 371.47 385.00 376.00 Z"/>
</g>
<g fill="#BCE8D5" fill-opacity="1.00" stroke="None">
<path d="
M 460.00 370.00 
C 463.46 375.82 467.11 382.15 470.00 388.00
C 466.68 378.78 461.91 370.64 456.00 363.00
C 457.42 365.29 458.61 367.66 460.00 370.00 Z"/>
</g>
<g fill="#2E9267" fill-opacity="1.00" stroke="None">
<path d="
M 445.00 386.00 
C 444.54 392.65 443.25 400.95 441.22 407.22 C 439.19 413.49 425.29 408.80 421.00 413.00
C 420.91 427.27 420.65 442.24 425.00 455.00
C 426.70 458.94 428.17 463.46 429.00 468.00
C 432.30 466.51 434.42 470.54 437.00 469.00
C 439.27 471.84 430.27 482.08 436.26 485.74 C 442.25 489.40 452.01 479.14 459.00 486.00
C 459.00 483.04 461.33 480.79 463.00 484.00
C 464.76 477.70 473.42 472.33 480.00 479.00
C 479.44 475.06 484.20 476.61 484.00 474.00
C 487.71 473.91 484.78 479.16 487.00 481.00
C 488.03 477.33 488.32 473.29 494.00 475.00
C 490.32 479.76 497.04 486.03 489.00 488.00
C 493.53 486.97 496.66 493.34 496.00 487.00
C 498.57 487.82 501.50 487.63 503.00 490.00
C 504.45 482.74 506.83 489.03 512.00 486.00
C 509.21 480.31 505.83 469.16 499.00 469.00
C 498.85 461.44 491.48 455.00 495.00 448.00
C 493.64 445.33 492.18 442.74 491.00 440.00
C 483.65 422.98 476.27 405.43 470.00 388.00
C 467.11 382.15 463.46 375.82 460.00 370.00
C 457.01 368.99 457.00 365.06 454.00 364.00
C 452.50 366.94 449.18 369.24 450.00 373.00
C 447.73 373.92 445.52 375.07 443.00 375.00
C 443.46 379.29 445.24 382.56 445.00 386.00 Z"/>
</g>
<g fill="#446EB0" fill-opacity="1.00" stroke="None">
<path d="
M 338.00 378.00 
C 338.91 381.35 342.27 383.08 344.00 386.00
C 327.57 386.65 311.31 387.91 295.00 389.00
C 294.12 390.44 295.87 392.22 296.00 393.00
C 298.49 400.62 308.40 412.16 309.00 423.00
C 311.18 420.99 310.20 417.83 315.00 418.00
C 316.16 415.55 313.01 412.52 315.00 411.00
C 313.86 406.16 310.37 402.05 310.00 397.00
C 324.07 395.10 335.60 397.00 349.99 394.99 C 364.38 392.98 349.08 377.08 344.00 372.00
C 341.51 370.55 339.36 368.74 337.00 367.00
C 335.75 368.91 335.98 371.69 334.00 373.00
C 335.05 374.80 336.76 376.26 338.00 378.00 Z"/>
</g>
<g fill="#4078AD" fill-opacity="1.00" stroke="None">
<path d="
M 385.00 377.00 
C 383.26 378.74 382.30 381.41 381.00 383.00
C 382.58 382.61 385.94 386.82 388.00 383.00
C 384.17 380.31 385.63 379.04 389.00 377.00
C 393.00 381.89 399.06 378.77 404.00 380.00
C 402.43 382.28 400.33 384.57 398.00 386.00
C 402.65 387.51 396.88 393.66 404.00 393.00
C 398.97 389.38 403.68 390.65 407.00 392.00
C 406.94 390.06 407.46 386.80 410.00 387.00
C 410.67 383.31 411.14 377.16 413.00 374.00
C 413.00 373.00 413.00 372.00 413.00 371.00
C 407.72 372.16 402.31 369.40 397.00 367.00
C 392.99 369.67 388.67 373.33 385.00 377.00 Z"/>
</g>
<g fill="#D4F4F3" fill-opacity="1.00" stroke="None">
<path d="
M 418.00 372.00 
C 421.14 372.00 426.03 372.95 429.00 372.00
C 428.73 371.87 428.35 371.05 428.00 371.00
C 424.70 370.52 420.63 370.88 418.00 372.00 Z"/>
</g>
<g fill="#4370BB" fill-opacity="1.00" stroke="None">
<path d="
M 117.00 380.00 
C 124.38 405.73 135.60 430.31 143.00 456.00
C 152.43 452.07 162.47 443.31 169.25 435.25 C 176.03 427.19 186.71 419.70 190.24 410.25 C 193.78 400.79 184.28 386.60 181.00 377.00
C 179.88 379.95 179.03 383.10 178.00 386.00
C 172.45 386.27 162.86 386.21 163.00 394.00
C 159.76 393.44 162.09 389.20 160.00 388.00
C 160.28 392.65 157.47 391.76 157.00 388.00
C 153.28 389.95 153.09 389.73 150.00 387.00
C 148.70 388.96 146.27 390.37 149.00 392.00
C 143.99 391.78 140.50 386.69 137.00 384.00
C 137.42 387.01 134.94 390.68 134.00 386.00
C 130.50 385.97 130.51 389.01 129.00 385.00
C 126.89 387.56 122.65 388.14 122.00 392.00
C 121.28 387.57 119.21 383.61 117.00 380.00 Z"/>
</g>
<g fill="#B0C9DF" fill-opacity="1.00" stroke="None">
<path d="
M 372.00 393.00 
C 374.51 389.49 378.25 386.34 381.00 383.00
C 382.30 381.41 383.26 378.74 385.00 377.00
C 379.71 380.70 375.12 387.46 372.00 393.00 Z"/>
</g>
<g fill="#4066B3" fill-opacity="1.00" stroke="None">
<path d="
M 381.00 383.00 
C 378.25 386.34 374.51 389.49 372.00 393.00
C 360.56 413.31 349.65 430.63 342.00 453.00
C 341.57 456.07 343.57 460.79 342.00 464.00
C 348.91 464.85 354.26 466.37 361.00 468.00
C 358.94 462.15 367.31 470.22 370.00 471.00
C 373.04 467.12 373.00 469.10 376.00 471.00
C 375.73 465.54 379.29 468.19 383.08 468.07 C 386.87 467.95 389.69 465.93 392.00 469.00
C 388.63 463.55 398.01 462.72 401.00 464.00
C 402.31 461.91 401.83 458.93 404.00 462.00
C 408.27 449.52 407.83 438.22 406.00 425.00 C 404.17 411.78 407.76 399.25 410.00 387.00
C 407.46 386.80 406.94 390.06 407.00 392.00
C 403.68 390.65 398.97 389.38 404.00 393.00
C 396.88 393.66 402.65 387.51 398.00 386.00
C 400.33 384.57 402.43 382.28 404.00 380.00
C 399.06 378.77 393.00 381.89 389.00 377.00
C 385.63 379.04 384.17 380.31 388.00 383.00
C 385.94 386.82 382.58 382.61 381.00 383.00 Z"/>
</g>
<g fill="#D6F4E8" fill-opacity="1.00" stroke="None">
<path d="
M 426.00 464.00 
C 425.33 461.07 425.70 457.95 425.00 455.00
C 420.65 442.24 420.91 427.27 421.00 413.00
C 425.29 408.80 439.19 413.49 441.22 407.22 C 443.25 400.95 444.54 392.65 445.00 386.00
C 444.61 382.22 442.01 380.24 439.00 378.00
C 448.94 386.67 439.77 389.21 440.99 400.99 C 442.21 412.77 425.02 405.12 420.26 411.26 C 415.50 417.40 420.29 432.36 420.07 439.93 C 419.86 447.50 422.64 457.56 426.00 464.00 Z"/>
</g>
<g fill="#DBF6E9" fill-opacity="1.00" stroke="None">
<path d="
M 585.00 447.00 
C 583.96 450.39 581.03 454.00 581.00 458.00
C 577.66 457.68 573.94 458.84 571.00 457.00
C 576.92 439.32 583.24 421.75 589.00 404.00
C 591.05 398.00 593.40 392.15 595.00 386.00
C 598.00 386.00 601.00 386.00 604.00 386.00
C 603.61 392.66 601.21 399.54 598.00 405.00
C 595.59 411.37 594.18 418.46 592.00 425.00
C 595.28 419.48 598.77 413.43 599.74 406.74 C 600.71 400.06 606.51 395.29 607.59 388.75 C 608.68 382.21 593.48 380.09 592.99 386.99 C 592.50 393.89 588.11 400.00 586.33 406.33 C 584.55 412.65 581.73 420.05 579.93 425.93 C 578.12 431.80 574.83 439.22 573.32 444.32 C 571.81 449.42 564.15 456.89 573.00 460.00 C 581.85 463.11 584.10 453.59 585.00 447.00 Z"/>
</g>
<g fill="#40A665" fill-opacity="1.00" stroke="None">
<path d="
M 589.00 404.00 
C 589.00 405.39 591.29 408.06 591.00 410.00
C 593.40 408.02 596.56 407.82 598.00 405.00
C 601.21 399.54 603.61 392.66 604.00 386.00
C 601.00 386.00 598.00 386.00 595.00 386.00
C 593.40 392.15 591.05 398.00 589.00 404.00 Z"/>
</g>
<g fill="#4250AA" fill-opacity="1.00" stroke="None">
<path d="
M 296.00 393.00 
C 297.51 401.96 304.13 411.02 306.23 419.77 C 308.33 428.52 315.52 437.24 317.23 445.77 C 318.94 454.30 329.90 463.73 322.69 471.70 C 315.49 479.66 303.04 477.42 300.77 467.23 C 298.51 457.03 293.68 451.37 290.00 442.00
C 289.12 445.65 290.28 450.45 284.00 451.00
C 284.17 454.98 289.47 459.75 284.00 462.00
C 280.32 458.88 277.63 462.61 275.30 462.29 C 272.97 461.96 266.07 464.18 263.00 461.00
C 264.61 463.19 263.81 464.86 262.00 465.00
C 256.82 462.26 249.74 467.78 244.00 463.00
C 242.87 470.33 236.51 470.81 231.00 472.00
C 231.79 466.11 226.24 469.54 223.00 469.00
C 229.85 472.99 213.11 470.23 219.00 464.00
C 216.17 467.37 212.30 466.10 210.00 463.00
C 208.34 460.76 208.81 456.38 206.00 457.00
C 201.67 458.44 194.74 468.81 191.00 472.00
C 187.26 475.19 183.69 478.91 180.00 482.00
C 189.08 477.51 196.25 462.83 207.00 466.00
C 197.66 476.83 186.29 486.22 177.00 497.00
C 180.79 497.76 182.25 501.63 186.00 500.00
C 185.15 502.85 185.27 505.33 186.00 508.00
C 188.85 506.42 187.48 502.66 191.00 502.00
C 194.66 507.24 200.57 499.27 203.00 506.00
C 204.18 504.14 202.88 499.90 206.00 500.00
C 204.12 506.91 211.72 498.71 210.00 506.00
C 211.29 501.78 213.67 501.96 215.00 506.00
C 214.82 498.56 222.26 502.56 225.00 506.00
C 228.64 503.11 234.87 509.03 238.00 502.00
C 241.80 506.22 243.88 501.10 247.00 502.00
C 244.42 504.03 246.31 506.16 246.00 509.00
C 249.33 509.34 252.10 510.50 255.00 511.00
C 255.06 513.89 251.26 517.61 254.00 520.00
C 260.12 502.79 267.43 486.06 274.00 469.00
C 278.97 479.43 283.77 491.22 288.00 502.00
C 290.57 501.18 293.50 501.36 295.00 499.00
C 297.85 500.97 298.30 503.94 302.00 501.00
C 302.76 507.99 312.71 506.02 316.00 512.00
C 317.67 502.83 326.75 506.45 331.00 504.00
C 330.74 508.60 331.99 505.02 334.00 504.00
C 333.29 507.02 333.08 508.73 337.00 508.00
C 332.96 499.04 346.25 505.53 351.07 505.93 C 355.89 506.33 361.39 501.49 366.00 506.00
C 364.76 502.12 368.40 502.22 370.00 500.00
C 370.89 502.74 367.09 504.62 369.00 507.00
C 372.38 503.35 372.48 500.41 373.00 508.00
C 374.91 502.46 382.22 502.62 387.00 502.00
C 387.58 505.36 382.72 509.14 386.00 512.00
C 391.74 495.23 398.26 478.78 404.00 462.00
C 401.83 458.93 402.31 461.91 401.00 464.00
C 398.01 462.72 388.63 463.55 392.00 469.00
C 389.69 465.93 386.87 467.95 383.08 468.07 C 379.29 468.19 375.73 465.54 376.00 471.00
C 373.00 469.10 373.04 467.12 370.00 471.00
C 367.31 470.22 358.94 462.15 361.00 468.00
C 354.26 466.37 348.91 464.85 342.00 464.00
C 343.57 460.79 341.57 456.07 342.00 453.00
C 340.61 456.70 340.54 461.62 337.00 464.00
C 330.33 446.09 321.63 428.95 315.00 411.00
C 313.01 412.52 316.16 415.55 315.00 418.00
C 310.20 417.83 311.18 420.99 309.00 423.00
C 308.40 412.16 298.49 400.62 296.00 393.00 Z"/>
</g>
<g fill="#3A9466" fill-opacity="1.00" stroke="None">
<path d="
M 566.00 399.00 
C 553.80 402.37 543.08 410.23 531.00 414.00
C 531.00 418.00 531.00 422.00 531.00 426.00
C 543.10 430.31 554.03 437.35 566.00 442.00
C 569.55 427.50 551.26 425.76 542.00 421.00
C 549.34 412.60 570.10 414.74 566.00 399.00 Z"/>
</g>
<g fill="#3D9867" fill-opacity="1.00" stroke="None">
<path d="
M 646.00 426.00 
C 649.62 415.30 640.40 411.30 632.70 408.31 C 624.99 405.31 618.88 400.94 611.00 399.00
C 606.71 414.84 628.60 412.75 635.00 421.00
C 626.50 422.92 619.58 429.30 611.00 431.00
C 611.00 434.67 611.00 438.33 611.00 442.00
C 623.08 437.80 634.11 430.65 646.00 426.00 Z"/>
</g>
<g fill="#378C65" fill-opacity="1.00" stroke="None">
<path d="
M 585.00 447.00 
C 586.04 439.42 589.60 432.19 592.00 425.00
C 594.18 418.46 595.59 411.37 598.00 405.00
C 596.56 407.82 593.40 408.02 591.00 410.00
C 591.29 408.06 589.00 405.39 589.00 404.00
C 583.24 421.75 576.92 439.32 571.00 457.00
C 573.94 458.84 577.66 457.68 581.00 458.00
C 581.03 454.00 583.96 450.39 585.00 447.00 Z"/>
</g>
<g fill="#486CB4" fill-opacity="1.00" stroke="None">
<path d="
M 92.00 432.00 
C 91.74 434.40 92.18 438.23 93.78 441.22 C 95.37 444.21 100.97 440.23 102.00 443.00
C 104.49 436.39 105.50 429.38 111.25 424.25 C 116.99 419.11 112.95 411.87 110.00 406.00
C 102.15 413.12 95.61 422.21 92.00 432.00 Z"/>
</g>
<g fill="#444FA2" fill-opacity="1.00" stroke="None">
<path d="
M 195.00 447.00 
C 191.53 445.84 187.24 445.43 184.00 443.00
C 185.37 442.42 186.06 438.91 186.00 439.00
C 185.79 439.27 185.20 439.68 185.00 440.00
C 182.39 444.22 177.66 447.87 174.00 451.00
C 171.70 452.96 169.25 455.08 167.00 457.00
C 149.22 472.20 109.13 488.44 102.00 454.00
C 101.35 450.84 100.64 448.21 102.00 445.00
C 102.00 444.50 101.94 443.49 102.00 443.00
C 100.97 440.23 95.37 444.21 93.78 441.22 C 92.18 438.23 91.74 434.40 92.00 432.00
C 85.37 449.95 87.97 469.97 104.77 481.23 C 121.57 492.49 142.13 487.39 157.77 478.77 C 173.41 470.15 183.43 460.28 195.00 447.00 Z"/>
</g>
<g fill="#D1DBF4" fill-opacity="1.00" stroke="None">
<path d="
M 167.00 457.00 
C 169.25 455.08 171.70 452.96 174.00 451.00
C 177.65 447.35 180.93 443.17 185.00 440.00
C 185.20 439.68 185.79 439.27 186.00 439.00
C 187.25 437.39 188.64 435.59 190.00 434.00
C 182.46 441.54 174.58 449.42 167.00 457.00 Z"/>
</g>
<g fill="#7E8DB8" fill-opacity="1.00" stroke="None">
<path d="
M 174.00 451.00 
C 177.66 447.87 182.39 444.22 185.00 440.00
C 180.93 443.17 177.65 447.35 174.00 451.00 Z"/>
</g>
<g fill="#BDE5D6" fill-opacity="1.00" stroke="None">
<path d="
M 495.00 448.00 
C 496.66 451.25 498.73 454.93 500.00 458.00
C 498.07 451.20 494.23 445.92 491.00 440.00
C 492.18 442.74 493.64 445.33 495.00 448.00 Z"/>
</g>
<g fill="#AEBAE4" fill-opacity="1.00" stroke="None">
<path d="
M 102.00 454.00 
C 101.73 451.06 102.00 447.96 102.00 445.00
C 100.64 448.21 101.35 450.84 102.00 454.00 Z"/>
</g>
<g fill="#237E5E" fill-opacity="1.00" stroke="None">
<path d="
M 425.00 455.00 
C 425.70 457.95 425.33 461.07 426.00 464.00
C 428.88 472.38 430.75 481.09 435.00 489.00
C 441.60 487.63 448.05 485.86 455.00 486.00
C 460.14 493.67 459.93 499.94 466.75 507.25 C 473.57 514.57 463.98 520.35 460.00 527.00
C 458.82 531.36 467.29 533.86 471.00 534.00
C 476.77 528.45 486.81 526.77 495.00 529.00
C 492.65 540.32 509.16 541.50 514.00 550.00
C 520.20 548.61 525.41 538.86 530.00 545.00
C 526.84 538.90 545.57 540.08 545.00 546.00
C 549.14 545.67 551.43 548.58 555.00 549.00
C 548.14 551.02 558.12 553.38 559.00 553.00
C 561.67 554.07 557.96 550.31 558.00 549.00
C 560.33 551.36 566.01 551.75 563.00 555.00
C 568.46 551.56 573.88 556.00 577.00 552.00
C 578.34 555.39 573.78 555.28 574.00 558.00
C 582.79 554.13 594.20 551.80 606.00 556.00
C 605.22 558.21 603.06 559.81 604.00 563.00
C 608.07 559.15 610.26 563.80 606.00 567.00
C 608.83 569.54 614.66 569.99 617.00 566.00
C 615.34 562.28 609.60 560.19 613.00 556.00
C 609.40 555.45 607.44 554.60 604.00 555.00
C 605.85 553.22 610.73 547.42 605.00 549.00
C 609.37 543.97 615.71 551.97 618.00 545.00
C 616.94 552.97 624.60 548.62 629.67 552.33 C 634.75 556.04 633.67 560.57 637.00 566.00
C 641.39 562.89 645.07 570.30 649.00 566.00
C 649.87 570.01 651.37 567.49 654.00 567.00
C 651.52 571.04 652.74 571.05 656.00 569.00
C 656.74 572.23 656.66 572.62 654.00 574.00
C 657.60 578.75 664.16 572.75 668.25 571.25 C 672.34 569.74 678.25 566.03 681.25 563.25 C 684.24 560.46 691.63 554.28 692.00 558.00
C 707.11 545.31 722.71 530.60 731.00 513.00
C 721.06 508.53 709.35 498.35 699.70 494.30 C 690.05 490.26 677.14 474.69 667.75 482.75 C 658.37 490.81 652.88 500.68 641.70 506.70 C 630.51 512.71 618.79 518.17 606.00 520.00
C 585.48 522.93 563.36 520.09 546.00 510.00
C 525.92 498.33 506.51 480.99 500.00 458.00
C 498.73 454.93 496.66 451.25 495.00 448.00
C 491.48 455.00 498.85 461.44 499.00 469.00
C 505.83 469.16 509.21 480.31 512.00 486.00
C 506.83 489.03 504.45 482.74 503.00 490.00
C 501.50 487.63 498.57 487.82 496.00 487.00
C 496.66 493.34 493.53 486.97 489.00 488.00
C 497.04 486.03 490.32 479.76 494.00 475.00
C 488.32 473.29 488.03 477.33 487.00 481.00
C 484.78 479.16 487.71 473.91 484.00 474.00
C 484.20 476.61 479.44 475.06 480.00 479.00
C 473.42 472.33 464.76 477.70 463.00 484.00
C 461.33 480.79 459.00 483.04 459.00 486.00
C 452.01 479.14 442.25 489.40 436.26 485.74 C 430.27 482.08 439.27 471.84 437.00 469.00
C 434.42 470.54 432.30 466.51 429.00 468.00
C 428.17 463.46 426.70 458.94 425.00 455.00 Z"/>
</g>
<g fill="#9CA1C9" fill-opacity="1.00" stroke="None">
<path d="
M 191.00 472.00 
C 194.74 468.81 201.67 458.44 206.00 457.00
C 200.97 458.11 194.57 468.43 191.00 472.00 Z"/>
</g>
<g fill="#4340A2" fill-opacity="1.00" stroke="None">
<path d="
M 180.00 482.00 
C 169.68 490.65 153.17 492.79 160.68 507.32 C 168.19 521.85 168.43 532.70 174.07 545.93 C 179.72 559.15 187.40 567.21 201.00 570.00 C 214.60 572.79 230.63 566.16 238.23 555.23 C 245.83 544.30 249.24 532.12 254.00 520.00
C 251.26 517.61 255.06 513.89 255.00 511.00
C 252.10 510.50 249.33 509.34 246.00 509.00
C 246.31 506.16 244.42 504.03 247.00 502.00
C 243.88 501.10 241.80 506.22 238.00 502.00
C 234.87 509.03 228.64 503.11 225.00 506.00
C 222.26 502.56 214.82 498.56 215.00 506.00
C 213.67 501.96 211.29 501.78 210.00 506.00
C 211.72 498.71 204.12 506.91 206.00 500.00
C 202.88 499.90 204.18 504.14 203.00 506.00
C 200.57 499.27 194.66 507.24 191.00 502.00
C 187.48 502.66 188.85 506.42 186.00 508.00
C 185.27 505.33 185.15 502.85 186.00 500.00
C 182.25 501.63 180.79 497.76 177.00 497.00
C 186.29 486.22 197.66 476.83 207.00 466.00
C 196.25 462.83 189.08 477.51 180.00 482.00 Z"/>
</g>
<g fill="#433FA3" fill-opacity="1.00" stroke="None">
<path d="
M 288.00 502.00 
C 298.23 528.06 299.80 561.15 332.99 569.01 C 366.18 576.86 377.74 536.14 386.00 512.00
C 382.72 509.14 387.58 505.36 387.00 502.00
C 382.22 502.62 374.91 502.46 373.00 508.00
C 372.48 500.41 372.38 503.35 369.00 507.00
C 367.09 504.62 370.89 502.74 370.00 500.00
C 368.40 502.22 364.76 502.12 366.00 506.00
C 361.39 501.49 355.89 506.33 351.07 505.93 C 346.25 505.53 332.96 499.04 337.00 508.00
C 333.08 508.73 333.29 507.02 334.00 504.00
C 331.99 505.02 330.74 508.60 331.00 504.00
C 326.75 506.45 317.67 502.83 316.00 512.00
C 312.71 506.02 302.76 507.99 302.00 501.00
C 298.30 503.94 297.85 500.97 295.00 499.00
C 293.50 501.36 290.57 501.18 288.00 502.00 Z"/>
</g>
<g fill="#D9F3EB" fill-opacity="1.00" stroke="None">
<path d="
M 606.00 520.00 
C 585.43 519.64 565.09 517.05 546.00 510.00
C 563.36 520.09 585.48 522.93 606.00 520.00 Z"/>
</g>
<g fill="#1F705B" fill-opacity="1.00" stroke="None">
<path d="
M 692.00 558.00 
C 691.63 554.28 684.24 560.46 681.25 563.25 C 678.25 566.03 672.34 569.74 668.25 571.25 C 664.16 572.75 657.60 578.75 654.00 574.00
C 656.66 572.62 656.74 572.23 656.00 569.00
C 652.74 571.05 651.52 571.04 654.00 567.00
C 651.37 567.49 649.87 570.01 649.00 566.00
C 645.07 570.30 641.39 562.89 637.00 566.00
C 633.67 560.57 634.75 556.04 629.67 552.33 C 624.60 548.62 616.94 552.97 618.00 545.00
C 615.71 551.97 609.37 543.97 605.00 549.00
C 610.73 547.42 605.85 553.22 604.00 555.00
C 607.44 554.60 609.40 555.45 613.00 556.00
C 609.60 560.19 615.34 562.28 617.00 566.00
C 614.66 569.99 608.83 569.54 606.00 567.00
C 610.26 563.80 608.07 559.15 604.00 563.00
C 603.06 559.81 605.22 558.21 606.00 556.00
C 594.20 551.80 582.79 554.13 574.00 558.00
C 573.78 555.28 578.34 555.39 577.00 552.00
C 573.88 556.00 568.46 551.56 563.00 555.00
C 566.01 551.75 560.33 551.36 558.00 549.00
C 557.96 550.31 561.67 554.07 559.00 553.00
C 558.12 553.38 548.14 551.02 555.00 549.00
C 551.43 548.58 549.14 545.67 545.00 546.00
C 545.57 540.08 526.84 538.90 530.00 545.00
C 525.41 538.86 520.20 548.61 514.00 550.00
C 509.16 541.50 492.65 540.32 495.00 529.00
C 486.81 526.77 476.77 528.45 471.00 534.00
C 467.29 533.86 458.82 531.36 460.00 527.00
C 456.31 531.91 467.62 536.94 470.00 542.00
C 477.40 541.06 483.52 528.19 490.75 534.25 C 497.98 540.31 501.68 543.54 509.77 548.23 C 517.86 552.92 508.86 563.72 508.00 571.00
C 515.41 574.41 522.73 578.94 530.32 581.68 C 537.91 584.41 547.13 588.09 554.98 589.02 C 562.82 589.95 576.46 595.07 583.92 592.92 C 591.37 590.76 583.52 571.35 595.00 572.00 C 606.48 572.65 614.07 570.45 624.33 568.33 C 634.59 566.21 635.38 578.68 639.00 585.00
C 658.04 580.25 676.78 571.00 692.00 558.00 Z"/>
</g>
</svg>